<svg width="140" height="201" viewBox="0 0 140 201" fill="none" xmlns="http://www.w3.org/2000/svg">
<path fill-rule="evenodd" clip-rule="evenodd" d="M72.5027 0.357977C64.6443 0.829974 55.5066 2.78306 49.3616 5.30518C41.5133 8.52652 36.5183 11.838 30.6058 17.738C21.7715 26.5538 20.7819 27.8884 15.5345 38.0714C13.6605 41.7078 13.3225 42.6536 13.3215 44.2681C13.32 45.9032 13.5997 46.4553 14.8312 47.2478C15.3745 47.5971 16.5174 48.9799 18.333 51.4832C21.8218 56.2927 24.6329 60.8637 28.1141 67.3878L29.3879 69.7747L29.2128 70.5158C28.9779 71.5093 28.9905 71.7678 29.3109 72.5484C29.4608 72.9146 29.6958 73.5068 29.8321 73.8649C29.9684 74.223 30.5183 75.4849 31.0535 76.6693C33.3078 81.6566 33.9044 83.3931 34.579 86.9356C34.7994 88.0924 35.0041 89.1153 35.0338 89.2079C35.0952 89.3995 35.068 89.4076 33.7465 89.5941C30.7789 90.0136 24.8834 91.5948 22.1236 92.7116C18.7838 94.0631 15.1204 96.7342 13.8255 98.7611C9.55351 105.451 9.96552 113.051 14.8659 117.956C16.272 119.364 18.5086 120.946 19.7813 121.433L20.224 121.602L20.2497 122.598C20.2824 123.861 20.1737 124.483 19.7341 125.547C18.7269 127.985 17.6488 128.781 14.308 129.551C8.82557 130.816 4.47657 133.618 3.35171 136.608C2.54982 138.741 3.99865 140.789 5.58331 139.763C9.37794 137.306 13.0211 139.933 16.4777 147.617C17.3847 149.633 19.3346 155.234 19.7783 157.097C20.2562 159.105 21.9294 159.729 24.157 158.729C24.4609 158.593 24.7355 158.519 24.7682 158.565C24.8004 158.611 25.2814 159.505 25.8367 160.552C29.5866 167.614 32.357 171.366 39.2596 178.727C45.2133 185.076 57.1828 191.622 65.6333 193.15C70.8456 194.092 80.0401 193.902 84.4957 192.76C93.9152 190.345 98.817 188.032 105.452 182.871C110.461 178.975 116.765 172.227 119.379 167.964C121.549 164.425 124.191 159.821 124.478 159.076C124.729 158.427 124.728 158.428 125.224 158.708C125.778 159.021 126.485 159.197 127.196 159.198C128.646 159.2 129.173 158.715 129.697 156.896C131.59 150.325 134.525 143.855 136.779 141.287C139.039 138.712 141.776 138.029 143.55 139.596C144.524 140.456 145.922 139.887 146.301 138.477C146.718 136.93 145.782 135.315 143.252 133.214C141.03 131.368 138.901 130.42 135.165 129.611C132.073 128.941 131.12 128.321 130.02 126.26C129.251 124.822 129.128 124.265 129.128 122.241C129.128 120.499 129.126 120.486 128.901 120.009C128.523 119.208 127.911 118.735 126.803 118.386C126.003 118.134 125.985 118.112 126.248 117.697C126.464 117.356 126.724 117.363 127.8 117.739C131.595 119.068 134.91 116.199 134.789 111.69C134.755 110.4 134.573 109.905 133.699 108.72C133.354 108.252 132.986 107.72 132.881 107.537L132.692 107.205L133.204 107.286C136.176 107.755 138.302 106.472 138.869 103.869C139.274 102.008 138.672 98.7712 137.612 97.1023C137.217 96.4794 137.219 96.4425 137.731 95.0252C139.019 91.4571 138.086 87.8476 135.446 86.1856C132.814 84.528 131.693 84.6983 128.648 87.2166C127.808 87.9109 127.108 88.4617 127.091 88.4411C127.074 88.4198 127.126 87.8251 127.207 87.1183C127.51 84.4422 127.387 82.1367 126.868 80.8065C126.291 79.326 124.692 78.1723 123.215 78.1711H122.769L123.386 77.4693C124.081 76.6806 126.19 73.5869 127.012 72.1534C129.896 67.1198 129.862 62.5044 126.905 57.5797C123.906 52.585 119.362 50.8335 113.808 52.533C110.956 53.4056 109.294 54.2157 107.372 55.6711C106.961 55.9822 106.594 56.237 106.557 56.237C106.375 56.237 106.261 55.6148 105.629 51.1715C105.037 47.0049 105.013 46.5542 105.303 45.0193C105.642 43.2189 105.495 42.2255 104.759 41.3378L104.492 41.0148L104.631 38.4351C104.939 32.721 105.336 26.5394 105.873 19.0782C106.073 16.2963 106.258 13.3529 106.285 12.5379L106.333 11.0555L106.019 10.6524C105.43 9.89744 102.633 7.65577 100.715 6.40066C93.9403 1.97053 83.3684 -0.293678 72.5027 0.357977ZM72.5429 3.846C73.5611 3.89357 75.3304 3.90797 76.4744 3.8773C80.023 3.78277 84.6301 4.09639 87.2204 4.60845C90.775 5.31144 91.5377 5.47858 92.4477 5.75589C94.3589 6.33744 97.1484 7.64325 98.6571 8.66362C99.06 8.93592 99.8684 9.43421 100.455 9.771C101.547 10.3995 101.859 10.6424 102.916 11.6878C103.251 12.0196 103.674 12.3801 103.855 12.4897L104.185 12.6894L103.924 14.3564C103.78 15.2734 103.62 16.5417 103.568 17.1752C103.517 17.8087 103.295 19.8369 103.075 21.6823C102.807 23.934 102.613 26.0424 102.484 28.0925C102.379 29.7726 102.274 31.3069 102.25 31.5022C102.226 31.6976 102.17 32.599 102.125 33.5054C102.08 34.4118 101.985 35.754 101.915 36.4883C101.831 37.3646 101.797 38.3888 101.814 39.4717C101.84 41.073 101.837 41.12 101.68 41.0918C101.532 41.0649 101.515 40.9616 101.468 39.7109C101.44 38.9672 101.377 38.0207 101.329 37.6075C101.22 36.656 101.213 32.5445 101.319 31.7483C101.455 30.7373 101.637 28.2678 101.767 25.6887C101.835 24.339 101.918 22.9644 101.953 22.6338C101.987 22.3033 102 21.0188 101.981 19.7793C101.963 18.5342 101.983 17.2566 102.027 16.9248C102.071 16.5943 102.089 16.3013 102.068 16.2738C101.969 16.1455 101.807 16.6581 101.756 17.2597C101.726 17.6265 101.655 18.2419 101.598 18.6275L101.497 19.3286L101.488 18.7108C101.483 18.3709 101.552 17.4694 101.641 16.7076C101.73 15.9458 101.851 14.7639 101.909 14.0809L102.017 12.8402L101.774 12.6787C101.558 12.5347 101.219 12.2581 99.8292 11.0918C99.1948 10.5591 98.2355 10.0164 96.9718 9.4749C96.3299 9.20009 95.3242 8.74938 94.7372 8.47332C92.575 7.45733 92.0976 7.2927 90.6533 7.06234C89.9007 6.94215 89.0495 6.80568 88.7618 6.75936C87.7617 6.59785 85.0713 6.52148 84.946 6.65106C84.4686 7.14371 84.5883 9.10932 85.3298 12.9686C86.6559 19.8707 86.8878 21.7618 87.3144 29.1441C87.5479 33.1749 87.6389 34.3956 87.905 37.0567C87.9709 37.7177 88.0454 38.6079 88.0705 39.0348L88.1158 39.811H87.238C86.755 39.811 86.3028 39.8386 86.2328 39.8717C86.1322 39.9199 86.1056 39.8617 86.1061 39.5963C86.1071 38.8614 85.9099 37.0216 85.5391 34.3023C85.3253 32.7323 85.0929 30.8255 85.023 30.0643C84.9535 29.3038 84.6774 27.4571 84.4102 25.9604C83.9268 23.2554 83.5817 20.8085 83.4524 19.1759C83.3629 18.0472 82.7245 15.1695 81.7963 11.7166C81.3818 10.1741 80.9597 8.43263 80.8581 7.84733L80.674 6.78252L80.1608 6.73118C79.364 6.65168 78.6813 6.75247 78.7392 6.94089C78.7653 7.0254 78.7422 7.42541 78.6874 7.8298C78.5656 8.73185 78.9308 10.9547 79.7946 14.5698C80.5417 17.6967 80.758 18.8998 80.9557 21.0313C81.1393 23.0132 81.1861 23.3612 81.5981 25.8389C81.7354 26.6652 82.1354 29.4471 82.487 32.0218C82.8381 34.5959 83.1636 36.8945 83.2094 37.1299C83.2954 37.5693 83.4217 40.3118 83.3563 40.3118C83.2688 40.3118 80.6005 40.7287 79.8675 40.8564C79.4248 40.934 78.716 41.0267 78.2924 41.063L77.5222 41.1294L77.4221 39.8442C77.3673 39.1374 77.2531 38.0633 77.1686 37.4573C77.0841 36.8513 76.9588 35.6344 76.8904 34.753C76.7707 33.215 75.8984 27.4433 75.0738 22.734C74.9003 21.7424 74.5964 19.8438 74.3992 18.5142C73.8579 14.8684 73.5294 13.4762 72.5816 10.8114C72.0972 9.44861 71.7798 8.12777 71.7787 7.47048L71.7782 7.13057L70.9532 7.18565C69.8042 7.26203 69.8233 7.24637 70.018 7.9431C70.1056 8.25547 70.3757 9.54814 70.6187 10.8151C71.5826 15.8412 71.8094 17.7812 71.9417 22.133C71.984 23.5102 72.0735 25.2455 72.1415 25.9892C72.2179 26.8311 72.2582 28.0405 72.2471 29.1942C72.2375 30.2133 72.2521 32.0494 72.2798 33.2744C72.3266 35.3452 72.2506 36.353 72.1475 35.0297C72.1228 34.7123 72.0132 33.8666 71.904 33.1505C71.7948 32.4343 71.6827 31.5329 71.655 31.1473C71.6273 30.7617 71.4804 29.8672 71.3285 29.1598C71.17 28.4243 70.916 26.7309 70.7349 25.2035C70.3239 21.7412 69.6156 17.4043 68.7412 12.9936C67.9509 9.00729 68.0712 9.27083 67.3382 9.91935C65.6403 11.4211 63.3328 11.515 59.1161 10.2524C58.1945 9.97694 57.4016 9.76724 57.3538 9.78727C57.1134 9.8868 58.6165 11.2089 59.6463 11.8036C60.0633 12.0446 60.7269 12.5097 61.1208 12.8377C61.5152 13.1657 62.1546 13.6559 62.5415 13.9276C63.2684 14.4371 63.537 14.8822 63.0249 14.7282C62.9032 14.6913 62.4776 14.6243 62.0791 14.5786C60.1645 14.3583 58.1401 13.0731 56.0137 10.7281L54.8878 9.48554L54.3445 9.67271C54.0457 9.776 53.0924 9.99385 52.2256 10.1572C51.3588 10.3206 50.1036 10.633 49.4361 10.8521C48.769 11.0712 47.8454 11.3022 47.3836 11.3654C46.791 11.4468 46.1898 11.6233 45.3371 11.967C44.673 12.2343 43.7494 12.5498 43.2846 12.6681C41.305 13.172 39.2757 14.2556 36.0993 16.506C34.5177 17.6265 34.4442 17.604 35.8639 16.4347C38.2635 14.4572 42.9682 11.5964 48.1125 8.986C50.2324 7.91055 54.7651 6.35872 57.7236 5.6958C60.5574 5.06104 62.5535 4.67481 63.6085 4.55712C64.184 4.49264 65.2811 4.3061 66.0463 4.14209C67.9907 3.72581 68.5355 3.66133 69.6855 3.71329C70.2389 3.73833 71.5247 3.7978 72.5429 3.846ZM102.244 4.18841C104.652 5.80159 107.515 8.26862 108.046 9.18757C108.723 10.3582 108.726 10.7075 108.121 19.2285C107.575 26.9231 107.336 30.649 106.878 38.5991L106.801 39.9412L107.113 40.5854C107.739 41.8768 107.88 43.3141 107.556 45.1C107.288 46.5817 107.3 47.0462 107.677 49.6391C107.854 50.856 107.999 51.8926 107.999 51.9421C107.999 51.9922 108.28 51.8582 108.623 51.6447C108.966 51.4313 109.384 51.2015 109.551 51.1339C109.775 51.0438 109.846 50.9662 109.818 50.8447C109.605 49.9145 109.591 49.107 109.768 48.0096C110.105 45.9338 109.919 43.4687 109.314 41.9819C109.061 41.361 109.054 41.6026 109.533 33.9017C109.856 28.7072 109.935 27.5504 110.463 20.23C110.989 12.926 110.894 11.4374 109.802 9.97131C108.875 8.72434 105.3 5.87671 102.79 4.3856C101.561 3.65507 101.316 3.5668 102.244 4.18841ZM60.6524 43.5432C60.8919 43.8605 61.1716 44.6987 61.4292 45.8706C61.5504 46.4215 61.7164 47.1426 61.7989 47.4731C61.8814 47.8037 62.0932 48.7527 62.2698 49.5815C62.4766 50.5524 62.8061 51.7167 63.1944 52.8516C63.9324 55.0051 64.0376 55.4232 64.4581 57.8621C64.6407 58.9238 64.8978 60.2884 65.0291 60.8944C65.4703 62.9307 66.9775 68.338 67.6435 70.2717C67.886 70.9772 68.1049 71.7077 68.1295 71.8955C68.2648 72.934 66.8547 74.6136 65.339 75.2189C64.686 75.4793 63.4107 76.2969 63.0138 76.71C62.7809 76.9516 62.5862 77.07 62.4197 77.07C62.2638 77.07 61.737 77.361 60.9985 77.855C60.3531 78.2869 59.6559 78.7201 59.4481 78.8177C59.2408 78.9154 59.0527 79.0556 59.0295 79.1295C59.0069 79.2033 58.6693 79.3836 58.28 79.5301C57.8906 79.676 57.1551 79.967 56.646 80.1768C56.1369 80.3865 55.5574 80.588 55.3577 80.6243L54.9955 80.6913L54.3017 79.5063C52.536 76.4903 51.8986 74.9867 51.4011 72.663C51.2652 72.0295 51.0454 71.2182 50.9116 70.8601C50.5911 70.0006 50.5016 69.3559 50.6797 69.1875C50.894 68.9847 51.0705 69.0366 51.1274 69.3189C51.1566 69.4629 51.3623 70.0827 51.5847 70.6961C51.8075 71.3096 52.2221 72.5215 52.5068 73.3898C54.0754 78.1767 54.9452 79.7292 55.9412 79.5195C56.1208 79.4819 56.3985 79.4362 56.5575 79.4174C57.2029 79.3429 59.1297 78.464 59.3701 78.1348C59.4964 77.9626 59.7741 77.706 59.9874 77.5645C60.4915 77.2308 60.6866 76.8008 60.6544 76.094C60.6223 75.3936 60.912 75.197 61.2772 75.6721C61.8568 76.4246 62.2099 76.4183 63.5602 75.6333C64.0738 75.3347 64.7695 74.9328 65.1071 74.7394C65.7153 74.3907 65.8833 74.2123 66.5775 73.1782C67.3477 72.0301 67.1153 70.4232 65.099 62.9476C64.3369 60.1219 63.702 57.556 63.3655 55.9365C62.1083 49.8901 61.2596 47.3492 59.9783 45.7924C59.3721 45.0556 59.1639 45.0174 58.2483 45.4756C57.6024 45.7986 57.3257 45.875 56.3643 45.9952C54.8445 46.1849 54.2011 46.4653 52.9495 47.4838C47.7674 51.7004 47.864 51.5965 47.9047 52.8892C47.9274 53.6216 48.2951 56.4836 48.4315 56.9901C48.4752 57.1541 48.6382 58.0774 48.7932 59.0414C48.9486 60.0055 49.2213 61.3952 49.3994 62.1301C49.7907 63.7414 49.7912 63.7489 49.4844 63.7489C49.1936 63.7489 49.0698 63.4903 48.7932 62.3066C48.689 61.8603 48.4189 60.8869 48.1935 60.1432C47.9681 59.3995 47.7141 58.3547 47.6286 57.822C47.543 57.2887 47.3302 56.4048 47.1552 55.8577C46.6848 54.3897 46.559 53.7055 46.6119 52.9023L46.6566 52.2219L47.2739 51.5001C49.6247 48.7533 56.4056 44.3482 59.5437 43.53C60.5126 43.2777 60.4517 43.2771 60.6524 43.5432ZM11.1226 46.8722C11.2061 50.2569 11.8168 51.6729 13.8235 53.1308C15.5742 54.4035 21.524 63.3702 25.64 70.9409L26.8087 73.0899L26.8665 74.2035C26.9309 75.4399 27.104 76.3895 27.3887 77.07C27.4923 77.3178 27.7227 77.9038 27.9008 78.372C28.0789 78.8403 28.662 80.1924 29.1967 81.3768C29.7315 82.5611 30.4851 84.3264 30.8709 85.2998C31.6069 87.1547 31.621 87.1747 32.0833 87.0207C32.6709 86.8248 31.4399 83.3061 28.5151 76.8196C28.018 75.7178 27.5859 74.6812 27.5542 74.5159C27.523 74.3507 27.3937 74.0126 27.2675 73.7647C26.8841 73.0129 26.6643 71.6232 26.8152 70.9046C26.9631 70.201 27.0768 70.4895 25.5123 67.605C21.5451 60.289 15.1738 50.6281 13.7073 49.7048C12.3651 48.8591 11.6256 47.8362 11.2901 46.3601L11.0879 45.47L11.1226 46.8722ZM125.063 51.5421C126.904 52.9293 129.223 56.2458 130.254 58.9663C132.416 64.6747 131.56 69.8604 127.433 76.0365L126.925 76.7958L127.403 77.234C128.528 78.2637 129.57 80.9016 129.57 82.7158C129.57 83.0544 129.681 83.117 129.959 82.938C130.088 82.8554 130.442 82.712 130.747 82.6194C131.051 82.5267 131.333 82.4147 131.373 82.3702C131.522 82.2031 131.074 80.8359 130.561 79.8932C129.95 78.7708 129.954 78.8465 130.469 78.0014C133.526 72.9941 134.36 67.8973 133.032 62.3485C131.992 58.0042 128.751 53.3869 125.541 51.6773C124.79 51.2773 124.664 51.2416 125.063 51.5421ZM120.314 55.6342C123.694 56.4993 125.857 61.0834 124.655 64.8369C123.716 67.7702 122.047 69.6695 118.404 71.9494L117.903 72.263L117.74 71.8661C117.468 71.2032 117.521 70.6974 117.971 69.6288C118.311 68.8225 118.596 68.0494 119.359 65.8654L119.512 65.4278L118.997 65.4691C118.542 65.5048 118.43 65.558 118.034 65.9305C117.004 66.8982 116.545 66.9064 117.139 65.9461C118.493 63.7545 120.627 62.7523 122.541 63.4077C122.761 63.4828 122.88 63.2281 122.945 62.5439C122.971 62.2703 123.02 62.0462 123.052 62.0462C123.14 62.0462 123.292 62.8725 123.292 63.3507C123.292 63.8334 123.425 63.8497 123.614 63.3908C124.024 62.3955 123.528 59.9285 122.784 59.2668C122.005 58.5745 120.915 58.0505 120.256 58.0536C120.089 58.0543 119.735 57.9591 119.469 57.842C119.007 57.638 118.688 57.5616 117.336 57.3275C114.66 56.8655 110.701 57.7312 108.332 59.2975C107.337 59.9554 106.983 59.921 107.683 59.2349C108.213 58.7147 111.135 56.8611 112.068 56.4536C113.753 55.7168 118.712 55.2241 120.314 55.6342ZM116.933 57.6436C116.69 57.6855 116.292 57.7168 116.048 57.7131L115.605 57.7068L116.048 57.6392C116.292 57.6023 116.69 57.571 116.933 57.5697L117.376 57.5672L116.933 57.6436ZM126.758 63.3983C127.287 68.0713 123.487 74.422 117.457 78.9435C116.271 79.8325 115.113 80.5317 113.754 81.1796C113.09 81.4957 111.261 82.4184 109.689 83.2291C104.935 85.6817 104.272 85.9797 102.566 86.4273C102.256 86.5086 101.477 86.8072 100.835 87.0914C97.2852 88.6639 96.9451 88.7647 94.1144 89.0902C93.1404 89.2023 90.9853 89.5616 89.3252 89.8884C87.6651 90.2151 85.8721 90.5306 85.3409 90.5882C84.8097 90.6464 83.9404 90.7622 83.4091 90.8455C82.2838 91.0227 80.5552 91.1535 77.5736 91.2862C75.7494 91.3676 74.933 91.4377 73.5088 91.6367C73.376 91.6555 72.3799 91.5616 71.2953 91.4277C69.1507 91.1641 69.5295 91.166 62.5218 91.3738C58.454 91.494 57.9148 91.5216 55.1972 91.7444C54.1569 91.8296 52.7805 91.9397 52.1385 91.9886C48.8103 92.2421 47.9802 92.3235 46.9469 92.4975C46.3271 92.602 44.9507 92.7804 43.8883 92.8944C41.7955 93.1191 41.0444 93.2193 39.743 93.4471C39.2782 93.5285 38.3545 93.6637 37.6905 93.7476C37.0264 93.8315 36.2115 93.9642 35.8795 94.0424C35.5474 94.1213 34.9679 94.2158 34.5916 94.2528C34.2153 94.2897 33.3183 94.4725 32.5985 94.659C31.8786 94.8456 31.1723 94.9977 31.0289 94.9971C30.8855 94.9971 30.4966 95.1091 30.1646 95.2462C29.8326 95.3839 28.5468 95.8159 27.3072 96.2058C22.7358 97.645 22.2147 97.8184 21.1683 98.2535C17.4215 99.8109 14.8317 102.927 14.0549 106.812C13.7345 108.417 14.0273 110.85 14.6385 111.66C14.7693 111.834 15.0173 112.195 15.1894 112.464C15.4927 112.939 16.3228 113.858 16.3816 113.785C16.3977 113.765 16.2629 113.383 16.0823 112.936C15.9017 112.488 15.698 111.819 15.6295 111.448C15.5611 111.077 15.4318 110.472 15.3428 110.103C14.9811 108.61 15.4469 108.968 15.8876 110.522C16.2579 111.828 16.441 112.257 16.937 112.977C17.2031 113.362 17.6091 114.028 17.8405 114.457C18.3119 115.332 18.6625 115.694 19.5399 116.214C19.8719 116.41 20.2854 116.72 20.4595 116.902C20.633 117.083 21.0677 117.369 21.4254 117.536C23.0151 118.279 23.2077 118.38 23.3008 118.519C23.3546 118.6 23.6625 118.81 23.985 118.986C24.8844 119.478 25.5948 120.037 25.3191 120.038C22.3585 120.041 17.9809 117.838 15.6693 115.181C15.297 114.754 14.7104 114.136 14.3658 113.809C13.2269 112.726 13.0594 112.135 13.0629 109.221C13.0699 103.809 14.728 100.481 18.7475 97.8115C20.8111 96.4406 24.0242 95.1085 26.623 94.547C27.4863 94.3604 28.8974 94.023 29.7592 93.7977C34.0553 92.674 40.2546 91.531 42.8016 91.3932C43.842 91.3369 45.0373 91.2443 45.4578 91.1873C46.9303 90.9882 57.8579 90.3841 62.6426 90.2377C65.2988 90.1563 67.6893 90.043 67.9549 89.9854C68.2206 89.9284 70.5206 89.8433 73.0661 89.7963L77.6943 89.7112L82.6299 89.047C90.287 88.0154 95.6829 86.6827 100.393 84.6595C101.411 84.2225 102.67 83.7537 103.191 83.6184C104.252 83.3436 105.724 82.7133 107.829 81.6322C108.609 81.2322 109.681 80.7076 110.212 80.4672C111.152 80.0415 111.314 79.9257 112.831 78.5861C113.077 78.3701 113.964 77.7335 114.803 77.1714C115.76 76.5316 116.946 75.6195 117.98 74.7281C118.887 73.9456 120.119 72.9253 120.717 72.4602C124.506 69.5136 126.441 66.1777 126.465 62.5576L126.472 61.5166L126.57 62.0568C126.624 62.3542 126.709 62.9576 126.758 63.3983ZM51.5555 65.558C51.7049 65.6231 51.8392 65.7783 51.8976 65.9536C52.046 66.4 51.964 66.5151 51.6999 66.2328L51.47 65.9862L50.9604 66.1564C50.6314 66.2666 50.2133 66.5251 49.7812 66.887C48.4154 68.0294 47.6311 68.1897 47.6311 67.327C47.6311 66.6272 49.2122 65.67 50.569 65.5486C50.9674 65.5129 51.2969 65.4766 51.3014 65.4679C51.306 65.4591 51.4202 65.4998 51.5555 65.558ZM90.7116 66.5283C91.0673 67.5649 90.7665 70.6141 90.2222 71.4924C89.3846 72.8433 88.9544 73.1819 89.2704 72.2411C89.5375 71.4442 89.862 68.7568 89.6909 68.7568C89.6572 68.7568 89.4982 68.8851 89.3368 69.0416C86.758 71.5475 82.7079 73.1619 79.5858 72.9278L78.8212 72.8702L79.7342 73.2633C81.4618 74.007 81.8718 74.0959 83.3478 74.0452C84.5496 74.0045 84.9867 74.0746 84.4354 74.2198C84.0681 74.3169 83.2149 74.7231 82.3542 75.2114C80.5683 76.2242 79.1295 76.2055 77.3321 75.1457C76.8673 74.8721 76.0523 74.4921 75.5211 74.3012C74.0083 73.7591 73.379 73.1869 73.2552 72.2411C73.136 71.3234 72.9428 71.4379 76.6077 70.2592C79.446 69.3459 80.3877 68.9509 82.1927 67.9174C84.1839 66.7768 84.8444 66.5095 85.4878 66.5852C85.761 66.6172 86.2203 66.599 86.508 66.5452C87.2596 66.405 88.6586 66.2835 89.7095 66.2672L90.6171 66.2528L90.7116 66.5283ZM116.741 66.6716C116.845 66.8813 115.586 68.1452 115.409 68.0094C115.134 67.7978 115.401 67.3095 116.02 66.8932C116.552 66.5358 116.658 66.5032 116.741 66.6716ZM87.0156 75.4662C87.2888 75.7723 86.1222 76.571 85.2921 76.6462C83.6667 76.7933 83.8498 76.0884 85.5623 75.6076C86.0588 75.468 86.4798 75.3353 86.4985 75.3122C86.5427 75.2571 86.9331 75.3729 87.0156 75.4662ZM124.057 81.1114C125.246 81.8006 125.435 82.9912 124.948 86.7352C124.834 87.6166 124.702 88.6307 124.657 88.9888C124.409 90.9043 123.854 93.3407 123.492 94.0969L123.133 94.8481L123.132 94.137C123.131 93.2925 123.465 91.5748 123.89 90.2427C124.284 89.0076 124.376 88.3534 124.296 87.3543C124.215 86.3327 124.215 85.9352 124.298 84.4385L124.365 83.2435L124.09 83.4532C123.623 83.8106 122.47 83.7918 122.172 83.4219C122.102 83.3349 122.352 83.1828 122.568 83.1809C122.834 83.1777 123.373 82.9887 123.373 82.8979C123.373 82.8585 123.184 82.7708 122.954 82.7026C122.723 82.6344 122.399 82.4435 122.234 82.2782C121.822 81.8663 121.665 81.9589 119.786 83.7198C118.951 84.5017 118.804 84.5224 118.108 83.9533C117.501 83.4576 116.64 83.0763 115.042 82.5962L114.72 82.4992L115.193 82.4892C115.917 82.4729 116.958 82.8228 117.856 83.3831C118.921 84.0479 119.093 84.0341 119.575 83.2447C120.649 81.4869 122.876 80.4271 124.057 81.1114ZM114.552 83.1796C114.761 83.5101 114.959 83.7806 114.992 83.7806C115.058 83.7806 115.324 84.4272 115.324 84.585C115.324 84.9712 114.48 84.3784 114.183 83.7831C113.818 83.0532 113.321 83.3799 112.742 84.7321C112.523 85.246 112.493 85.283 112.537 84.9887C112.703 83.8864 113.52 82.5806 114.044 82.5793C114.115 82.5787 114.344 82.8491 114.552 83.1796ZM137.753 84.6632C140.274 86.9888 141.29 91.9116 140 95.5417L139.797 96.1126L139.988 96.4894C141.258 98.9921 141.585 103.362 140.689 105.854C140.107 107.473 138.29 109.399 137.076 109.683C136.932 109.717 136.815 109.766 136.815 109.794C136.815 109.821 136.873 110.12 136.945 110.458C137.478 112.974 136.345 116.977 134.593 118.776C133.795 119.595 132.152 120.537 131.518 120.539C131.396 120.539 131.382 120.697 131.382 122.067V123.594L131.654 124.195C132.231 125.467 132.662 125.931 133.664 126.36C134.342 126.651 134.464 126.622 134.202 126.235C133.382 125.021 133.402 124.167 134.26 123.843C137.336 122.68 139.118 119.354 139.288 114.457L139.334 113.132L139.857 112.828C143.334 110.803 144.453 105.215 142.619 99.0347L142.376 98.2134L142.568 97.1317C143.256 93.2606 142.37 88.8292 140.441 86.4967C139.661 85.5534 137.656 84.0823 137.15 84.0811C137.135 84.0811 137.407 84.3427 137.753 84.6632ZM109.448 86.3102C109.448 86.8204 109.501 87.8007 109.566 88.4886C109.926 92.3241 110.092 94.1545 110.091 94.2928C110.091 94.4243 109.927 94.4493 109.011 94.4581L107.932 94.4681L107.759 93.9072C107.279 92.3529 106.754 89.4977 106.6 87.6123C106.563 87.1453 106.764 86.6795 106.907 86.9024C106.976 87.0094 107.945 90.8993 108.061 91.5328C108.209 92.3454 108.363 92.577 108.283 91.8684C108.172 90.8749 107.838 87.0138 107.838 86.7215C107.838 86.4335 109.024 85.4125 109.387 85.3875C109.421 85.385 109.448 85.8 109.448 86.3102ZM104.102 87.8514C103.632 89.3744 103.379 91.2881 103.376 93.3457C103.37 96.3536 103.684 97.5524 104.988 99.5055C105.604 100.427 106.228 101.505 106.228 101.647C106.228 101.673 106.022 101.541 105.771 101.352C105.182 100.911 105.179 100.925 105.617 102.012C106.097 103.205 106.111 103.759 105.712 105.659C105.347 107.395 105.313 107.71 105.423 108.366C105.541 109.077 105.602 109.017 105.835 107.97C106.04 107.047 106.148 106.888 106.148 107.512C106.148 109.009 106.683 106.808 106.719 105.164L106.73 104.664L106.796 105.064C106.833 105.285 106.865 105.814 106.868 106.241C106.87 106.668 106.904 107.017 106.943 107.017C107.029 107.017 107.546 105.091 107.676 104.287C107.727 103.969 107.803 103.735 107.844 103.767C107.963 103.858 107.934 104.081 107.677 105.082C107.322 106.46 107.166 107.703 107.223 108.72C107.268 109.538 107.112 110.623 106.948 110.623C106.918 110.623 106.518 110.319 106.06 109.947L105.228 109.271H104.641H104.054L103.928 108.795C103.77 108.206 103.67 108.189 103.637 108.745L103.612 109.171L103.428 108.548C103.187 107.735 103.09 107.675 103.087 108.339C103.085 108.749 103.065 108.83 103.002 108.695C102.877 108.427 102.78 108.485 102.752 108.845C102.728 109.151 102.715 109.133 102.535 108.541C102.005 106.805 101.535 106.682 101.882 108.37C101.97 108.801 102.034 109.163 102.023 109.173C101.741 109.443 101.577 109.297 101.482 108.694C101.006 105.674 97.5569 103.111 93.9675 103.111C91.0613 103.111 87.987 104.406 83.6506 107.457C81.6876 108.839 81.1343 109.024 80.0366 108.668C79.5793 108.52 77.6541 107.357 77.6541 107.229C77.6541 106.937 79.0481 106.216 79.612 106.216C80.3797 106.216 79.8872 106.018 78.7356 105.863C76.335 105.541 72.6108 105.571 70.3093 105.932C69.4395 106.068 69.4143 106.171 70.2288 106.262C70.761 106.322 70.9331 106.392 71.4009 106.74C72.0413 107.216 72.061 107.153 71.0196 107.963C69.2891 109.31 67.9565 109.139 65.6333 107.275C61.6943 104.113 56.5872 102.483 53.4516 103.387C50.6917 104.183 48.4249 106.434 48.1045 108.697C48.0194 109.299 47.8484 109.449 47.5677 109.169C47.5546 109.157 47.618 108.815 47.7085 108.41C47.8791 107.642 47.9193 107.117 47.8072 107.117C47.6215 107.117 47.1446 107.965 46.959 108.626C46.8438 109.036 46.8332 109.047 46.8282 108.77L46.8226 108.47L46.6652 108.72L46.5077 108.97L46.5062 108.432C46.5042 107.837 46.3769 107.834 46.1812 108.423C46.0665 108.768 45.9408 108.813 45.9408 108.512C45.9408 108.158 45.7506 108.357 45.6314 108.835L45.5187 109.285L45.0866 109.241C44.5543 109.186 44.341 109.287 43.3822 110.052C42.9707 110.38 42.6215 110.632 42.6059 110.611C42.5909 110.59 42.4465 110.082 42.2855 109.481C41.9459 108.213 41.5389 107.102 40.8588 105.583C40.3864 104.528 40.3774 104.493 40.5182 104.299C40.6515 104.115 40.6707 104.113 40.7607 104.266C40.8457 104.41 40.8618 104.389 40.8845 104.105C40.9343 103.469 41.0751 103.732 41.4313 105.129C41.9746 107.256 42.1411 107.422 41.9193 105.615C41.7673 104.382 41.6491 102.944 41.705 103.017C41.7236 103.041 41.9067 103.872 42.1119 104.864C42.5667 107.062 42.6246 107.247 42.6447 106.567C42.6527 106.291 42.6824 105.615 42.7106 105.064L42.7614 104.063L42.9893 105.916C43.1151 106.935 43.2378 107.859 43.263 107.969L43.3082 108.169L43.3711 107.969C43.4058 107.859 43.437 107.622 43.44 107.443C43.4486 106.948 43.5693 107.054 43.677 107.651C43.9265 109.04 44.0331 109.236 44.1247 108.477C44.1815 108.004 44.0548 107.005 43.759 105.589C43.4501 104.113 43.4974 103.236 43.9476 102.076C44.3204 101.117 44.3249 101.005 43.9833 101.217C43.8651 101.291 43.8868 101.243 44.0492 101.071C44.1821 100.931 44.7435 100.563 45.2968 100.253C45.8502 99.9436 46.6109 99.4735 46.9871 99.2081C48.0929 98.4287 48.4008 98.2591 49.9663 97.5592C52.8791 96.2578 53.4928 95.953 55.6801 94.7229C56.8975 94.0381 58.0385 93.4033 58.2156 93.3119C58.4953 93.1673 58.9169 93.1454 61.4352 93.1454C63.4002 93.1454 64.605 93.1016 65.178 93.0102C66.0996 92.8624 70.5905 92.93 70.9225 93.0966C71.0875 93.1792 71.088 93.1836 70.9331 93.2011C70.6534 93.2324 71.4437 93.3639 73.048 93.5529C75.02 93.7845 74.9294 93.9379 72.8246 93.9323C71.8285 93.9298 70.8073 93.854 69.7393 93.7031C68.0903 93.4709 67.8332 93.4803 68.3574 93.7526C69.1724 94.1764 73.8524 95.0716 75.4406 95.1072L75.843 95.1166L75.5613 95.2193C74.9707 95.4353 72.1686 95.0922 69.9672 94.5351C69.5869 94.4387 69.8047 94.6208 70.4366 94.9257L71.0136 95.2049L70.6147 95.1504C70.3953 95.121 69.7252 94.8443 69.1256 94.5363C67.6481 93.777 66.8935 93.4797 66.5509 93.5204L66.2646 93.5548L66.5786 93.7332C66.7511 93.8315 67.1898 94.0193 67.5535 94.1501C70.1875 95.1004 74.3127 99.3076 74.6442 101.383C74.6724 101.562 74.7252 101.709 74.7609 101.709C74.8158 101.709 75.0784 100.759 75.0784 100.559C75.0784 99.9023 76.909 97.9824 79.0224 96.4212C79.6643 95.9473 80.5261 95.275 80.9371 94.9276C81.413 94.5257 81.8592 94.2359 82.1645 94.1301C83.1531 93.7877 82.483 93.6656 81.3969 93.9898C81.0427 94.0956 80.59 94.2672 80.3907 94.3705C80.0718 94.5357 79.8942 94.5507 78.9017 94.495C78.2819 94.4606 77.9559 94.4243 78.1772 94.4149C78.9032 94.3836 81.3627 93.8227 81.4945 93.6581C81.6439 93.4722 81.2952 93.5022 79.8912 93.7964C78.7236 94.0405 78.0288 94.1294 77.0906 94.1545L75.843 94.187L76.4869 94.0556C76.8411 93.9836 77.3391 93.8922 77.5937 93.8534C78.0605 93.7814 78.2396 93.5961 77.8417 93.5961C77.4297 93.5961 77.7516 93.4452 78.2844 93.3889L78.8212 93.3326L78.5395 93.1886C78.2698 93.0515 78.3065 93.0427 79.3846 92.9839C80.8898 92.9019 82.7607 92.7228 83.385 92.6014C83.6637 92.5469 84.5315 92.4336 85.3127 92.3498C86.094 92.2652 88.0318 91.9297 89.619 91.6029C91.2062 91.2768 93.312 90.9131 94.2985 90.7954C97.4598 90.4167 97.9729 90.2715 100.376 89.0739C102.058 88.2351 103.159 87.8232 104.043 87.7018C104.113 87.6924 104.134 87.7462 104.102 87.8514ZM105.748 89.5021C105.942 91.6536 105.885 91.3751 106.514 93.2537C106.881 94.3517 107.016 94.86 106.957 94.9332C106.833 95.0872 106.778 94.9883 106.192 93.561C105.316 91.4245 105.1 89.9578 105.411 88.2545C105.556 87.4633 105.569 87.5102 105.748 89.5021ZM133.47 88.0911C136.041 89.1159 136.705 91.5222 135.368 94.9733C134.936 96.0863 134.865 96.2015 134.965 95.6243C135.001 95.4177 135.042 94.7823 135.057 94.2121L135.084 93.1761L134.667 92.9808C134.217 92.7704 133.756 92.2183 133.756 91.8897C133.756 91.6167 133.849 91.6436 134.118 91.9936C134.254 92.1695 134.433 92.294 134.55 92.294H134.75L134.585 92.0687C134.418 91.8421 134.146 91.2399 134.166 91.1416C134.19 91.0201 134.061 90.1031 133.952 89.6192C133.705 88.5287 132.228 88.5575 130.295 89.6918C129.277 90.289 128.444 90.7203 128.444 90.6502C128.444 90.5976 130.854 88.6414 131.501 88.1681C132.152 87.6924 132.441 87.6811 133.47 88.0911ZM102.443 89.2142C101.974 91.3519 102.204 93.9729 102.999 95.563L103.237 96.0381L103.291 95.6807C103.36 95.2231 103.225 93.8459 102.926 91.9497C102.721 90.6477 102.697 90.3203 102.741 89.4207C102.804 88.1412 102.695 88.0655 102.443 89.2142ZM100.95 89.8552C100.805 91.0577 101.135 93.6468 101.449 93.7695C101.669 93.8553 101.642 92.8562 101.36 90.55C101.293 90.0042 101.238 89.5197 101.238 89.4733C101.238 89.1428 100.997 89.4614 100.95 89.8552ZM99.7623 90.0574C99.6763 90.1644 99.7004 90.8862 99.7975 91.1122C99.9167 91.3889 100.027 91.1791 100.029 90.6746C100.031 90.1168 99.9203 89.8608 99.7623 90.0574ZM98.5816 90.5876C98.5816 90.6959 98.654 90.833 98.7426 90.8918C98.9146 91.0064 98.9292 90.9701 98.8528 90.6164C98.7929 90.3391 98.5816 90.3172 98.5816 90.5876ZM105.538 93.9197C106.062 95.64 106.166 96.3104 105.862 95.9961C105.617 95.7432 105.094 93.7269 104.978 92.5945C104.902 91.849 104.919 91.8878 105.538 93.9197ZM88.1983 92.4399C87.9106 92.51 87.3164 92.6465 86.8778 92.7435C85.8586 92.9682 86.0009 93.1441 87.1429 93.0715C87.9377 93.0208 90.6387 92.6164 90.8545 92.5156C91.2886 92.3134 88.9886 92.2477 88.1983 92.4399ZM76.2857 93.2005C76.0865 93.2449 75.6156 93.2756 75.2393 93.2693L74.5552 93.2581L75.2796 93.1955C75.678 93.161 76.1489 93.1304 76.326 93.1266L76.6479 93.1203L76.2857 93.2005ZM134.357 93.6211C134.546 93.9567 134.35 93.9711 134.074 93.6418C133.947 93.4897 133.861 93.3269 133.884 93.28C133.943 93.1623 134.205 93.3513 134.357 93.6211ZM73.0259 95.65C74.5984 95.9517 75.4511 95.9617 76.7093 95.695C77.8407 95.4547 77.9836 95.4841 77.1112 95.7777C74.9933 96.4907 73.1788 96.4807 72.0182 95.7483C71.3511 95.3282 71.3471 95.3282 73.0259 95.65ZM105.429 96.2753C105.608 96.9401 105.606 97.3258 105.425 96.9057C105.367 96.7705 105.271 96.4325 105.212 96.1545C104.986 95.1016 105.135 95.1842 105.429 96.2753ZM111.42 95.8522C111.907 95.9342 112.758 96.0694 113.311 96.1533C115.157 96.4331 115.571 96.512 116.116 96.6904C116.413 96.7874 116.728 96.9226 116.815 96.9915C116.962 97.106 116.958 97.1104 116.772 97.0503C116.318 96.9038 114.577 96.7098 113.674 96.7048C113.142 96.7016 112.309 96.6322 111.822 96.5501C108.195 95.9379 106.903 96.6509 106.919 99.255L106.926 100.357L106.748 99.8535C105.63 96.7016 107.409 95.178 111.42 95.8522ZM76.5689 96.7987C76.3823 97.1736 74.6326 97.4416 74.0239 97.188C73.4474 96.9483 73.6104 96.8957 74.8786 96.9113C75.6393 96.9207 76.247 96.8832 76.3662 96.8206C76.6248 96.6835 76.6258 96.6835 76.5689 96.7987ZM134.333 96.9307C134.66 97.1148 135.791 98.6935 136.12 99.426C136.928 101.224 137.007 102.856 136.332 103.812L136.084 104.163L136.266 103.712C136.5 103.13 136.517 101.752 136.297 101.221L136.157 100.884L135.854 101.252L135.551 101.62L135.54 100.938C135.528 100.145 135.344 99.1881 135.122 98.7561L134.966 98.4538L134.965 99.1749C134.963 99.9311 134.862 100.357 134.661 100.453C134.569 100.497 134.553 100.458 134.593 100.283C134.84 99.1837 134.686 97.9211 134.235 97.3483C133.801 96.7962 133.834 96.6509 134.333 96.9307ZM118.299 100.203C118.592 100.433 117.253 100.53 116.41 100.34L116.088 100.267L116.37 100.2C116.805 100.096 118.167 100.098 118.299 100.203ZM60.3878 101.31C60.7415 101.521 61.0453 101.676 61.0634 101.654C61.1298 101.571 60.6987 101.211 60.3541 101.062C59.7132 100.784 59.7313 100.916 60.3878 101.31ZM89.0072 101.189C88.3075 101.619 88.4096 101.757 89.1723 101.411C89.539 101.244 89.8499 101.108 89.864 101.108C89.8776 101.108 89.8886 101.063 89.8886 101.008C89.8886 100.826 89.4525 100.915 89.0072 101.189ZM55.9216 101.434C55.9437 101.462 56.4508 101.582 57.0485 101.7C58.033 101.894 59.6679 102.389 59.6 102.473C59.5849 102.492 59.1769 102.397 58.693 102.262C55.3999 101.342 54.1282 101.36 52.4323 102.346C51.2295 103.045 51.313 103.142 52.702 102.66C54.2046 102.14 55.0362 102.177 57.3302 102.87C57.7729 103.003 58.6653 103.201 59.3133 103.309C60.6077 103.525 60.7002 103.563 62.5621 104.641C63.8932 105.412 64.772 105.853 64.8304 105.781C65.0019 105.567 63.1753 104.135 61.9785 103.544C61.569 103.343 61.2501 103.158 61.2692 103.134C61.3401 103.046 62.1787 103.447 62.8161 103.874C63.5677 104.377 63.7634 104.429 63.4817 104.052C62.6607 102.953 61.0021 102.054 59.0607 101.657C58.3177 101.505 55.8406 101.329 55.9216 101.434ZM91.096 101.621C89.4006 101.836 89.1577 101.928 87.8764 102.844C87.4115 103.176 86.7983 103.609 86.5141 103.805C86.0251 104.143 85.7429 104.496 86.0789 104.349C86.1599 104.314 85.9728 104.511 85.6629 104.788C85.1321 105.261 84.6462 105.815 84.7614 105.815C84.873 105.815 86.0392 105.204 87.1519 104.563C88.8674 103.574 88.9942 103.524 90.28 103.309C90.928 103.201 91.8204 103.003 92.2631 102.87C94.5535 102.178 95.3881 102.14 96.8873 102.658C97.996 103.042 98.069 103.044 97.6816 102.682C96.3354 101.428 94.462 101.305 91.2263 102.259C90.7443 102.401 90.3364 102.5 90.3198 102.48C90.2403 102.38 92.9634 101.609 93.394 101.609C93.4971 101.609 93.6043 101.564 93.6314 101.509C93.7039 101.363 92.8311 101.402 91.096 101.621ZM108.945 102.483C109.648 103.016 109.712 103.144 109.647 103.89C109.612 104.294 109.634 104.592 109.724 104.901C109.911 105.551 109.884 105.736 109.502 106.446C108.717 107.903 108.577 109.082 109.013 110.573C109.066 110.755 109.052 110.752 108.864 110.538C108.201 109.788 108.056 107.656 108.552 105.966C109.332 103.307 109.333 103.388 108.498 102.632C108.19 102.354 107.856 101.981 107.754 101.803L107.569 101.48L107.965 101.76C108.183 101.914 108.624 102.239 108.945 102.483ZM60.3083 102.711C60.41 102.765 60.4245 102.797 60.3486 102.797C60.2822 102.797 60.1554 102.758 60.0669 102.711C59.9652 102.656 59.9507 102.624 60.0266 102.624C60.093 102.624 60.2198 102.663 60.3083 102.711ZM127.507 104.056C127.634 104.17 128.394 105.253 129.197 106.463C130 107.673 130.986 109.1 131.389 109.633C132.234 110.754 132.63 111.451 132.628 111.817C132.621 113.28 131.762 114.93 131.008 114.93C130.637 114.93 130.622 114.884 130.925 114.688C131.05 114.607 131.31 114.289 131.502 113.98L131.85 113.417L131.754 112.897C131.702 112.61 131.601 112.185 131.53 111.951L131.401 111.527L131.126 111.826C130.539 112.468 129.478 111.958 129 110.802C128.714 110.112 128.858 109.264 129.148 109.929C129.34 110.368 129.687 110.851 129.61 110.573C129.491 110.142 129.474 109.608 129.564 109.16C129.653 108.721 129.647 108.676 129.464 108.43C129.357 108.287 129.138 107.921 128.978 107.618C128.817 107.315 128.496 106.726 128.263 106.309C127.769 105.422 127 103.644 127.164 103.766C127.226 103.812 127.38 103.942 127.507 104.056ZM73.7965 104.599C73.1868 104.676 73.1063 104.817 73.5259 105.076C74.0828 105.42 76.2369 105.247 76.3431 104.85C76.4039 104.623 74.8394 104.469 73.7965 104.599ZM48.6176 105.811C48.2775 106.348 48.2966 106.491 48.6614 106.132C48.9883 105.809 49.1051 105.509 48.8988 105.521C48.8435 105.524 48.7172 105.654 48.6176 105.811ZM100.596 105.588C100.6 105.718 101.168 106.436 101.218 106.374C101.304 106.267 101.045 105.8 100.818 105.654C100.695 105.574 100.595 105.545 100.596 105.588ZM44.2545 106.116C44.2535 106.652 44.426 107.541 44.5402 107.588C44.7581 107.678 44.6237 106.271 44.3752 105.862C44.2635 105.678 44.2555 105.695 44.2545 106.116ZM105.064 106.207C104.936 106.686 104.912 107.618 105.028 107.618C105.136 107.618 105.343 106.684 105.343 106.198C105.343 105.579 105.23 105.583 105.064 106.207ZM46.9514 106.84C46.8101 107.091 46.7834 107.518 46.9087 107.518C46.9872 107.518 47.0566 107.347 47.1828 106.842C47.2563 106.55 47.1149 106.548 46.9514 106.84ZM102.378 106.692C102.393 106.733 102.458 106.936 102.522 107.143C102.586 107.349 102.671 107.518 102.709 107.518C102.795 107.518 102.7 106.917 102.587 106.742C102.5 106.607 102.333 106.567 102.378 106.692ZM75.5211 107.908C75.8913 108.112 76.0151 108.42 75.7268 108.42C75.4768 108.42 75.432 108.639 75.6468 108.813C75.7535 108.9 75.9497 109.093 76.0835 109.243L76.326 109.516L76.0518 109.518C75.7198 109.522 75.8108 109.692 76.4668 110.291C77.0257 110.801 77.1268 111.073 76.7224 110.979L76.418 110.908L76.6192 111.241C76.9472 111.785 76.9573 111.831 76.7108 111.671C76.4734 111.517 75.8028 111.469 75.8028 111.605C75.8028 111.65 76.0055 111.904 76.253 112.17C77.5122 113.523 77.6737 115.431 76.5297 115.431C76.4251 115.431 76.3929 115.376 76.42 115.245C76.4703 115.007 75.9451 114.93 74.2634 114.93H73.0701L73.1466 115.18C73.2276 115.445 72.6687 115.584 72.5429 115.33C72.1022 114.443 72.5681 112.752 73.467 111.976C73.6451 111.823 73.7905 111.658 73.7905 111.611C73.7905 111.494 73.2059 111.501 72.9504 111.622C72.6908 111.745 72.6923 111.696 72.9599 111.26L73.1753 110.908L72.8845 110.975C72.4529 111.076 72.5645 110.763 73.1159 110.325C73.7035 109.859 73.9198 109.475 73.5576 109.541C73.2311 109.601 73.2457 109.529 73.6275 109.201C74.038 108.848 74.1708 108.556 73.959 108.473C73.6683 108.358 73.704 108.139 74.0561 107.877C74.4571 107.579 74.942 107.589 75.5211 107.908ZM104.136 107.988C104.137 108.271 104.158 108.331 104.216 108.219C104.318 108.023 104.318 107.747 104.216 107.668C104.168 107.631 104.136 107.759 104.136 107.988ZM45.3431 107.948C45.3069 108.103 45.2999 108.257 45.3275 108.291C45.4176 108.403 45.4704 108.243 45.4392 107.953L45.4085 107.668L45.3431 107.948ZM41.0535 109.754C41.1692 110.387 41.1682 110.423 41.0319 110.423C40.8608 110.423 40.817 110.235 40.7506 109.221C40.6923 108.319 40.8372 108.575 41.0535 109.754ZM128.561 108.98C128.62 109.467 128.566 109.662 128.439 109.418C128.32 109.191 128.26 108.837 128.312 108.67C128.399 108.387 128.506 108.52 128.561 108.98ZM45.3708 109.997C45.9262 110.785 46.5465 111.014 47.201 110.673C47.9314 110.293 48.036 110.826 47.7508 113.478C47.4867 115.936 47.7553 118.504 48.4933 120.564C48.8143 121.46 48.848 121.247 48.5809 120.013C48.3062 118.745 48.3052 118.064 48.5758 116.986L48.7258 116.388L48.9883 117.374C50.4432 122.833 53.4017 125.582 56.9775 124.798C57.4826 124.687 58.3489 124.297 60.424 123.247C61.9483 122.476 63.21 121.863 63.2276 121.885C63.3539 122.041 61.2204 123.584 60.3083 123.996C59.8018 124.225 59.6871 124.345 59.9763 124.345C60.3803 124.345 61.3713 123.86 62.8513 122.938C63.6537 122.438 64.3258 122.049 64.3449 122.073C64.4828 122.245 63.447 123.165 62.3206 123.871C61.5972 124.325 60.8657 124.922 60.9321 125.004C60.9513 125.028 61.7245 124.692 62.6501 124.258C64.5281 123.376 64.4612 123.391 64.2036 123.914C63.774 124.786 62.962 125.674 62.0092 126.313C61.5192 126.641 61.5177 126.644 61.7974 126.645C62.3417 126.648 63.119 125.892 65.2847 123.256C66.5599 121.705 66.812 121.13 67.0389 119.259C67.2245 117.725 67.3618 117.386 68.3498 116.025C68.7523 115.471 69.2418 114.761 69.437 114.448C69.9174 113.677 69.8118 113.978 69.0119 115.664C67.9082 117.988 67.9087 117.988 69.2202 116.381C69.8827 115.57 70.0402 115.412 69.8198 115.781C68.1416 118.596 67.6189 119.873 67.39 121.716C67.314 122.327 67.4599 122.246 67.6596 121.565C67.877 120.824 68.3418 119.95 69.3112 118.459C69.7393 117.801 70.1971 117.019 70.3289 116.721C70.6096 116.088 70.6242 116.109 70.419 116.851C70.2057 117.622 70.0834 117.899 69.2579 119.481C68.4218 121.083 68.218 121.681 67.7552 123.883C67.4287 125.438 67.1546 126.493 67.0228 126.703C66.9307 126.849 66.3054 128.551 66.3436 128.551C66.4261 128.551 67.39 126.983 67.9026 126.014C68.3971 125.079 68.5239 124.743 68.8112 123.596L69.1452 122.264L70.1629 120.525C70.7223 119.568 71.3164 118.512 71.4824 118.176C72.2572 116.614 75.3002 116.123 77.2581 117.245L77.7879 117.548L79.119 119.92L80.4501 122.291L80.8249 123.701C81.1805 125.038 81.2334 125.165 81.8672 126.205C82.2345 126.807 82.6324 127.507 82.7511 127.76C83.1631 128.637 83.3236 128.673 83.0112 127.819C82.8563 127.396 82.6757 126.949 82.6098 126.823C82.4287 126.479 82.2702 125.875 81.8371 123.875C81.3345 121.556 81.168 121.055 80.4431 119.697C79.4666 117.865 79.2176 117.284 79.0672 116.482C79.0199 116.231 79.0631 116.274 79.3313 116.749C79.5074 117.061 79.9601 117.753 80.3369 118.286C81.0055 119.232 81.1348 119.501 81.8874 121.515C82.1515 122.223 82.2737 122.322 82.1982 121.766C81.9779 120.146 81.422 118.679 80.2725 116.683L79.4072 115.18L80.3605 116.362C81.5045 117.781 81.5609 117.737 80.7439 116.06C80.1709 114.884 79.5038 113.268 79.5063 113.062C79.5068 113.015 79.6548 113.315 79.8343 113.728C80.3223 114.85 80.513 115.175 81.4094 116.405C82.318 117.653 82.3341 117.695 82.5579 119.359C82.645 120.005 82.7919 120.748 82.8844 121.008C83.5138 122.779 86.1413 125.863 87.5977 126.541C88.1948 126.819 88.2532 126.737 87.7033 126.391C86.6363 125.721 84.9777 123.783 85.2297 123.502C85.2468 123.483 86.0175 123.823 86.9432 124.258C87.8688 124.692 88.642 125.028 88.6611 125.004C88.7301 124.918 87.9825 124.317 87.1922 123.822C86.265 123.242 85.523 122.623 85.3419 122.28C85.1648 121.943 85.1467 121.935 86.9824 123.035C88.6189 124.017 89.3176 124.349 89.7221 124.34C89.8816 124.337 89.8187 124.272 89.4459 124.057C89.1803 123.903 88.5102 123.425 87.9568 122.993C87.4035 122.561 86.7968 122.124 86.6086 122.02C86.4205 121.917 86.2665 121.811 86.2665 121.787C86.2665 121.729 86.6232 121.904 88.557 122.916C90.5824 123.974 91.5422 124.39 92.573 124.655C96.27 125.605 99.057 123.162 100.513 117.693L100.857 116.4L101.054 117.242C101.293 118.263 101.273 118.959 100.968 120.288L100.761 121.19L100.957 120.892C101.064 120.728 101.241 120.294 101.35 119.927C101.737 118.63 101.762 118.252 101.736 114.24L101.712 110.495L102.099 110.559C102.311 110.594 102.746 110.652 103.065 110.688L103.644 110.751L104.081 110.187C104.833 109.213 105.75 109.499 106.15 110.832C106.249 111.16 106.424 111.529 106.541 111.652C106.746 111.869 106.752 111.908 106.753 113.027C106.754 114.147 107.067 116.833 107.196 116.833C107.226 116.833 107.272 116.365 107.298 115.792C107.338 114.905 107.405 114.522 107.758 113.185L108.171 111.618L108.498 111.941L108.826 112.264L108.782 113.922C108.757 114.877 108.642 116.452 108.511 117.634C108.221 120.263 108.226 120.93 108.554 122.626C108.849 124.156 108.844 124.385 108.528 123.716C108.047 122.695 108.04 122.616 108.035 118.686C108.031 114.773 108.026 114.562 107.944 114.664C107.84 114.795 107.277 118.492 107.18 119.687L107.081 120.889L106.967 120.439C106.89 120.138 106.851 119.493 106.846 118.507C106.842 117.225 106.824 117.03 106.716 117.056C106.346 117.145 106.214 121.162 106.532 122.642C106.858 124.157 107.134 124.736 107.932 125.577C108.273 125.936 108.473 126.263 108.729 126.879C108.917 127.33 109.173 127.847 109.297 128.027C109.493 128.308 109.52 128.416 109.487 128.803C109.465 129.05 109.43 129.46 109.408 129.712C109.357 130.301 109.142 130.902 108.742 131.574C108.323 132.277 108.193 132.593 108.042 133.279C107.924 133.816 107.865 133.906 107.099 134.732C106.319 135.573 106.265 135.656 105.898 136.614C105.59 137.414 105.429 137.705 105.099 138.057L104.686 138.498L103.344 138.433C101.433 138.341 100.132 138.087 98.8829 137.561C98.6284 137.453 98.3024 137.362 98.1585 137.357C97.6751 137.34 98.6475 137.069 99.1984 137.067C99.7522 137.065 100.692 137.27 101.228 137.509C102.012 137.859 102.049 137.569 101.302 136.932C100.625 136.354 100.053 136.15 98.9036 136.074L97.8974 136.008L98.4609 135.78C98.7708 135.655 99.311 135.526 99.6612 135.492C100.286 135.431 100.295 135.427 100.121 135.253C99.6114 134.739 98.2767 134.822 96.5844 135.474C96.1553 135.639 94.9716 136.019 93.9534 136.319C90.9742 137.198 89.8816 137.748 88.9092 138.862C88.2869 139.574 87.5524 141.009 87.893 140.846C88.0051 140.793 88.0056 140.835 87.902 141.254C87.735 141.928 87.6711 143.456 87.7913 143.908C87.9081 144.348 88.0373 144.39 88.0373 143.986C88.0373 142.618 88.9388 139.862 89.5792 139.273C89.87 139.005 89.8368 139.091 89.3217 139.931C88.5605 141.174 88.1696 144.641 88.6345 146.026C88.8045 146.531 88.807 146.523 88.9197 145.139C89.1225 142.658 89.8021 140.509 90.8017 139.192C91.2801 138.562 91.3375 138.577 91.0588 139.261C89.6054 142.83 89.4283 144.905 90.2926 148.238C90.5129 149.089 90.6935 149.915 90.6935 150.074V150.362L90.3811 149.973C89.8997 149.374 89.1989 149.48 88.8448 150.204L88.6933 150.514L88.6098 150.124C88.3965 149.133 88.2018 147.977 88.1515 147.406C88.0866 146.658 88.0001 146.609 87.8874 147.256C87.8416 147.518 87.6937 148.177 87.5584 148.721C87.2385 150.008 87.243 150.417 87.5881 151.375L87.8633 152.139L87.7798 153.053L87.6958 153.966L87.3753 153.809L87.0543 153.652L87.1052 153.046C87.1333 152.712 87.1766 152.236 87.2012 151.988L87.2465 151.538L87.0393 151.838L86.832 152.139L86.8838 151.547C86.922 151.112 86.911 150.974 86.8426 151.028C86.676 151.155 86.7394 150.631 86.998 149.742C87.2913 148.734 87.2737 148.457 86.9593 149.125C86.7173 149.639 86.6091 149.69 86.755 149.223C87.0559 148.259 87.3044 147.381 87.2767 147.381C87.2591 147.381 87.0956 147.573 86.9135 147.807L86.5825 148.233L86.9432 147.256C87.3507 146.152 87.3074 146.063 86.6876 146.738C86.1936 147.276 86.1981 147.299 86.508 145.812C86.6408 145.176 86.748 144.446 86.7465 144.191L86.743 143.725L86.6192 144.01C86.4421 144.416 85.7388 147.017 85.6126 147.732C85.4169 148.838 85.4657 151.7 85.6946 152.57C85.9275 153.455 85.8832 153.549 85.3359 153.342C84.5918 153.061 84.0209 153.261 83.4931 153.987C83.3513 154.182 83.3427 154.183 83.137 154.002C82.7748 153.685 82.2566 153.391 82.0599 153.391C81.5996 153.391 80.2152 154.931 79.5592 156.173L79.2266 156.802L78.8775 155.923C78.3568 154.609 78.059 154.292 77.3492 154.292C76.6369 154.292 75.4089 155.312 75.0286 156.22C74.864 156.613 74.7388 156.564 74.44 155.99C73.2492 153.704 71.2772 153.823 70.5593 156.225C70.4637 156.544 70.3601 156.77 70.3294 156.726C70.2987 156.682 70.0432 156.263 69.7614 155.794C68.3307 153.416 67.7809 153.04 66.8165 153.779C66.3004 154.174 66.326 154.177 65.7012 153.645C64.9124 152.973 64.6352 152.897 64.1774 153.231L63.8097 153.499V153.09C63.8097 152.864 63.8856 152.152 63.9787 151.508C64.2841 149.386 64.1729 148.211 63.4641 146.079C63.2055 145.302 63.1341 145.023 62.964 144.126L62.9072 143.826L62.8312 144.073C62.7341 144.39 62.7985 144.888 63.0918 146.09C63.2211 146.619 63.3267 147.085 63.3267 147.125C63.3267 147.164 63.1371 146.99 62.9057 146.738C62.2819 146.059 62.2371 146.149 62.6496 147.256L63.0133 148.233L62.6421 147.782L62.2708 147.331L62.5098 148.132C62.6411 148.573 62.7869 149.058 62.8342 149.209C62.9585 149.606 62.8785 149.548 62.627 149.059C62.3141 148.451 62.3015 148.775 62.5988 149.789C62.8347 150.593 62.9203 151.258 62.7734 151.145C62.7346 151.115 62.721 151.304 62.7432 151.565L62.7829 152.039L62.6043 151.806C62.3588 151.489 62.3488 151.535 62.4594 152.477C62.5671 153.397 62.5354 153.531 62.142 153.818L61.9 153.994L61.815 153.066L61.73 152.139L62.0052 151.375C62.3754 150.348 62.3679 149.956 61.9584 148.808C61.7059 148.099 61.6364 147.782 61.6364 147.337C61.6364 146.201 61.3884 146.949 61.1902 148.683C61.1238 149.262 61.0328 149.877 60.9875 150.05L60.905 150.367L60.498 150.025C59.932 149.552 59.5633 149.577 59.0693 150.123L58.8771 150.336L58.9269 149.859C58.9546 149.597 59.1392 148.763 59.3369 148.007C60.1584 144.862 60.0322 143.298 58.6608 139.632C58.2538 138.543 58.2805 138.476 58.8002 139.289C59.9713 141.122 60.8129 143.896 60.738 145.678C60.7083 146.39 60.827 146.638 60.9291 146.079C61.322 143.932 60.9734 141.007 60.1791 139.785C59.7011 139.051 59.6986 138.89 60.1735 139.464C60.742 140.15 61.2647 141.733 61.4815 143.425C61.6762 144.947 61.8362 144.529 61.7803 142.644C61.7562 141.826 61.7008 141.297 61.6138 141.045C61.4865 140.678 61.487 140.671 61.64 140.773C61.9846 141.002 61.319 139.539 60.6711 138.642C59.9406 137.631 57.9666 136.664 56.6324 136.664C55.9513 136.664 55.7989 136.622 54.3108 136.01C52.4515 135.247 51.7527 135.061 50.743 135.063C48.9899 135.065 48.9642 135.357 50.6817 135.762C51.142 135.87 51.5324 135.977 51.5495 135.998C51.5666 136.019 51.2054 136.058 50.7471 136.083C49.9331 136.128 49.8898 136.143 48.9129 136.709C47.4263 137.571 47.2477 137.882 48.5346 137.369C49.3792 137.032 49.7379 137.007 50.9262 137.198L51.6863 137.321L51.0067 137.599C49.7832 138.102 47.5772 138.466 45.7642 138.466L44.823 138.467L44.5654 138.085C44.4235 137.876 44.1011 137.256 43.848 136.708C43.437 135.819 43.2972 135.616 42.54 134.811C41.7135 133.933 41.6879 133.894 41.5465 133.265C41.4308 132.752 41.2824 132.436 40.8181 131.718C39.5262 129.721 39.6706 128.455 41.465 126.048C43.0512 123.92 43.7489 120.823 43.2428 118.153C42.946 116.587 42.8625 116.69 42.6517 118.886C42.531 120.142 42.4958 120.348 42.4897 119.838C42.4822 119.185 41.7875 114.863 41.6612 114.684C41.6245 114.632 41.5943 116.164 41.5948 118.09V121.59L41.2597 122.792C40.9473 123.912 40.7044 124.541 40.815 123.944C41.3588 121.002 41.4363 119.103 41.1003 116.933C40.897 115.619 40.7753 110.823 40.9453 110.823C41.3905 110.823 42.2407 114.124 42.2664 115.95C42.28 116.93 42.3152 117.005 42.5048 116.457C42.78 115.662 42.8358 115.169 42.8389 113.515L42.8419 111.85L43.0461 111.704C43.1945 111.598 43.2876 111.393 43.3852 110.956C43.5562 110.19 43.7117 109.969 44.2102 109.784C44.8798 109.536 45.071 109.571 45.3708 109.997ZM117.801 110.848C117.154 112.52 116.145 113.745 114.076 115.368C113.678 115.681 113.044 116.205 112.667 116.533C111.526 117.528 110.172 118.289 110.172 117.936C110.172 117.834 110.152 117.685 110.127 117.606C110.095 117.501 110.166 117.445 110.385 117.401C110.651 117.347 111.531 116.696 111.983 116.219C112.072 116.126 112.517 115.847 112.971 115.598C114.978 114.504 116.959 112.328 117.955 110.124C118.342 109.267 118.256 109.668 117.801 110.848ZM129.892 110.1C129.892 110.334 130.125 110.742 130.217 110.671C130.298 110.609 130.06 109.922 129.958 109.922C129.922 109.922 129.892 110.002 129.892 110.1ZM8.67767 111.074C8.65906 116.835 11.3168 122.203 15.8509 125.563C16.5733 126.098 17.1387 125.696 17.7681 124.2L18.0181 123.605L16.8248 122.848C12.4959 120.103 9.98816 116.527 8.98957 111.675L8.68019 110.172L8.67767 111.074ZM68.9913 110.636C69.0672 111.107 69.0526 112.08 68.9716 111.97C68.9329 111.918 68.8086 111.526 68.6955 111.099L68.4892 110.323H68.7151C68.9037 110.323 68.9495 110.375 68.9913 110.636ZM80.9456 110.773C80.8576 111.021 80.763 111.459 80.7358 111.745C80.6795 112.339 80.5663 112.167 80.5583 111.474C80.5482 110.62 80.6312 110.323 80.8797 110.323H81.1061L80.9456 110.773ZM73.6949 110.642C73.5863 110.777 73.5541 110.875 73.6114 110.899C73.7367 110.951 74.1326 110.704 74.1738 110.548C74.2282 110.338 73.8846 110.406 73.6949 110.642ZM75.682 110.723C75.8148 110.833 75.9597 110.921 76.004 110.92C76.1403 110.915 75.7132 110.523 75.5724 110.524C75.4868 110.524 75.5251 110.594 75.682 110.723ZM79.0963 111.018C79.0908 111.153 79.0843 111.153 79.0455 111.024C79.0209 110.941 78.9676 110.783 78.9268 110.673C78.8539 110.476 78.8544 110.476 78.9776 110.667C79.0465 110.774 79.0999 110.932 79.0963 111.018ZM126.137 111.049C126.245 111.228 126.432 111.622 126.554 111.925C126.676 112.228 126.931 112.724 127.122 113.027C127.746 114.02 128.07 115.121 127.699 114.989C127.599 114.954 127.076 114.78 126.537 114.602L125.556 114.28L125.299 114.58C125.055 114.865 125.047 114.867 125.143 114.629C125.474 113.807 125.88 113.561 126.475 113.821L126.914 114.013L126.862 113.745C126.834 113.598 126.74 113.3 126.652 113.084C126.565 112.867 126.41 112.414 126.308 112.077C126.206 111.74 126.044 111.297 125.947 111.094C125.731 110.637 125.868 110.604 126.137 111.049ZM45.3557 111.084C45.323 111.124 45.2979 111.251 45.2994 111.366C45.3014 111.558 45.3079 111.561 45.3854 111.396C45.4754 111.203 45.4523 110.964 45.3557 111.084ZM45.6696 111.593C45.6098 112.135 45.6596 112.269 45.7778 111.883C45.8784 111.551 45.8839 111.254 45.7904 111.182C45.7521 111.153 45.6978 111.337 45.6696 111.593ZM100.614 112.426C100.617 113.431 100.43 114.201 99.79 115.831C99.5626 116.41 99.3925 116.815 99.4117 116.733C99.4308 116.65 99.6773 115.356 99.9595 113.858C100.509 110.94 100.611 110.717 100.614 112.426ZM103.779 111.524C103.853 112.13 104.01 112.326 103.951 111.738C103.927 111.497 103.866 111.249 103.815 111.187C103.748 111.103 103.739 111.19 103.779 111.524ZM104.111 111.319C104.135 111.432 104.189 111.524 104.231 111.524C104.338 111.524 104.278 111.2 104.162 111.151C104.102 111.126 104.083 111.187 104.111 111.319ZM17.8943 111.867C18.3109 112.76 20.1491 114.766 20.9635 115.217C23.1992 116.455 23.5855 116.647 24.0448 116.748C24.818 116.917 24.5378 117.077 23.4608 117.08L22.5552 117.083L21.6714 116.551C19.9167 115.493 19.5223 115.105 18.3964 113.323C17.752 112.303 17.6277 112.06 17.5256 111.615C17.4391 111.242 17.679 111.405 17.8943 111.867ZM47.1129 111.551C46.8362 112.076 46.6224 114.515 46.881 114.194C46.9182 114.148 47.381 111.591 47.3871 111.399C47.3921 111.242 47.2276 111.334 47.1129 111.551ZM49.7369 114.567C49.999 115.883 50.1992 116.976 50.1826 116.996C50.166 117.018 49.9336 116.392 49.6665 115.607L49.181 114.179L49.1418 112.726C49.1126 111.632 49.1222 111.385 49.182 111.725C49.2253 111.973 49.4753 113.252 49.7369 114.567ZM46.5505 111.512C46.4635 111.687 46.2653 112.885 46.2663 113.227C46.2683 113.722 46.3749 113.447 46.5384 112.526C46.6119 112.113 46.6908 111.696 46.714 111.6C46.7572 111.421 46.63 111.353 46.5505 111.512ZM102.24 111.642C102.282 111.869 102.606 114.132 102.606 114.196C102.606 114.214 102.647 114.229 102.698 114.229C102.821 114.229 102.74 112.425 102.593 111.876C102.472 111.429 102.163 111.223 102.24 111.642ZM102.899 111.502C102.82 111.66 102.963 112.605 103.139 113.093C103.267 113.446 103.28 113.458 103.311 113.237C103.387 112.691 103.038 111.221 102.899 111.502ZM128.293 112.276C128.461 112.661 128.81 113.27 129.069 113.628C129.328 113.986 129.567 114.346 129.601 114.429C129.635 114.512 129.498 114.354 129.296 114.079C128.843 113.458 128.834 113.546 129.257 114.498C129.439 114.908 129.565 115.27 129.539 115.303C129.432 115.436 129.105 115.126 128.967 114.764C128.887 114.552 128.607 113.838 128.345 113.177C127.704 111.56 127.685 111.502 127.854 111.542C127.928 111.56 128.126 111.89 128.293 112.276ZM20.5058 112.569C21.3876 113.456 22.1719 114.035 22.8687 114.316C23.6082 114.613 23.6806 114.786 23.0588 114.767C21.9621 114.735 19.4146 112.615 19.8382 112.088C19.9202 111.986 19.9408 112.001 20.5058 112.569ZM73.3629 117.932C72.0947 118.375 71.6736 119.033 70.6267 122.207C70.3395 123.078 70.0105 123.849 69.607 124.595C68.2251 127.149 66.8905 131.89 67.1028 133.488C67.1531 133.869 67.2159 134.751 67.2426 135.447C67.3251 137.623 68.2085 139.192 70.0477 140.427L70.6111 140.806L70.2987 140.42C69.9748 140.02 69.685 139.321 69.526 138.557C69.4757 138.315 69.4143 138.032 69.3902 137.928C69.3525 137.767 69.3816 137.747 69.5964 137.786C69.9144 137.844 69.9124 137.737 69.5884 137.376L69.3303 137.089L70.0512 137.091C70.5427 137.092 70.8712 137.041 71.084 136.929C71.2551 136.838 71.4095 136.764 71.4271 136.764C71.5076 136.764 71.1846 137.544 71.0096 137.772C70.7605 138.095 70.762 138.167 71.0161 138.167C71.5192 138.167 71.9483 137.755 72.2677 136.965C72.3678 136.717 72.4549 136.504 72.4609 136.491C72.4669 136.479 72.6395 136.548 72.8442 136.645L73.2165 136.821L72.9715 137.318C72.4161 138.446 71.7008 139.061 70.9331 139.071L70.5306 139.076L70.8441 139.421C71.738 140.403 73.1969 139.215 73.4333 137.311L73.4836 136.906L74.2206 136.945C74.7136 136.971 75.1392 136.931 75.506 136.824C75.8073 136.736 76.0835 136.664 76.1192 136.664C76.1554 136.664 76.2087 136.893 76.2389 137.174C76.3119 137.859 76.5735 138.702 76.8315 139.083C77.2868 139.756 78.3996 139.916 78.8212 139.369L79.0526 139.068H78.6441C77.9468 139.068 77.4785 138.682 76.8778 137.614C76.5996 137.119 76.3707 136.665 76.3692 136.605C76.3667 136.508 76.7666 136.214 76.8049 136.285C76.8139 136.301 76.9055 136.471 77.0086 136.664C77.3427 137.287 77.6852 137.685 78.0967 137.927C78.7397 138.306 78.9449 138.24 78.5837 137.772C78.4092 137.544 78.0857 136.764 78.1662 136.764C78.1833 136.764 78.3377 136.825 78.5093 136.9C79.0018 137.114 79.5989 137.176 80.0738 137.063C81.2228 136.789 80.9989 138.5 79.6769 140.101C78.9806 140.944 79.0103 141.044 79.8167 140.569C81.2213 139.742 82.2088 137.395 82.5026 134.185C82.7164 131.848 81.5936 127.616 79.9259 124.472C79.4812 123.634 79.199 122.96 78.9489 122.141C77.6727 117.96 76.2832 116.912 73.3629 117.932ZM48.7891 118.854C48.8173 119.03 48.9828 119.56 49.1569 120.031C49.3314 120.503 49.5704 121.272 49.6886 121.741C50.2128 123.816 50.7612 124.477 52.2683 124.846C52.7945 124.974 53.287 124.947 52.9837 124.805C51.634 124.176 50.9161 123.292 49.9653 121.09C48.932 118.696 48.6895 118.235 48.7891 118.854ZM84.9314 119.359C85.2815 119.622 85.6045 119.838 85.6488 119.838C85.6936 119.838 85.7112 119.861 85.6885 119.889C85.5763 120.029 83.9841 118.949 83.9001 118.676C83.8554 118.531 83.8765 118.533 84.0717 118.695C84.1944 118.797 84.5808 119.095 84.9314 119.359ZM100.671 118.811C99.965 121.247 98.3618 123.747 96.9718 124.581C96.3002 124.985 96.5522 125.058 97.5372 124.745C98.9373 124.3 99.3115 123.875 99.7537 122.223C99.9127 121.63 100.202 120.735 100.399 120.234C100.725 119.399 100.931 118.536 100.803 118.536C100.774 118.536 100.715 118.659 100.671 118.811ZM65.4939 118.896C65.3138 119.136 64.6226 119.639 64.4762 119.636C64.4415 119.635 64.5698 119.523 64.761 119.388C64.9521 119.252 65.2238 119.028 65.3647 118.889C65.6942 118.566 65.7394 118.569 65.4939 118.896ZM53.7011 120.965C55.3547 122.601 57.3071 122.817 60.1967 121.681C61.1002 121.326 61.067 121.436 60.1227 121.923C58.1602 122.936 57.057 123.05 55.4085 122.406C54.2414 121.95 54.1674 121.969 54.755 122.571L55.2158 123.043H54.7686C54.0618 123.043 53.0662 121.737 52.133 119.587L51.7849 118.786L52.538 119.672C52.9525 120.161 53.4757 120.742 53.7011 120.965ZM97.6072 119.212C97.25 119.947 97.0417 120.305 96.187 121.654L95.3217 123.019L94.8815 123.076C94.3221 123.148 94.3237 123.163 94.8418 122.648C95.5702 121.925 95.454 121.883 94.141 122.399C92.6369 122.989 91.9054 122.972 90.6316 122.314C89.8952 121.933 89.9314 121.891 90.8253 122.086C93.6028 122.69 95.3343 121.944 97.4105 119.249C97.8039 118.739 97.8406 118.732 97.6072 119.212ZM47.9842 121.043C48.1699 121.766 49.098 124.193 49.3777 124.684C49.8119 125.448 50.3441 125.773 51.4504 125.947C52.2417 126.071 52.3785 125.947 51.7602 125.664C50.6213 125.144 49.8104 124.201 48.7102 122.117C47.864 120.514 47.8393 120.477 47.9842 121.043ZM101.503 121.051C101.215 122.414 99.5656 124.636 98.2788 125.396C97.3586 125.94 97.3355 126.042 98.1142 126.12C98.8241 126.191 99.3362 125.912 99.8775 125.157C100.372 124.467 101.665 121.287 101.625 120.859C101.604 120.635 101.584 120.665 101.503 121.051ZM24.819 121.339C25.0002 121.391 25.5978 121.506 26.1471 121.594C28.5533 121.978 31.0671 124.713 33.2474 129.314C33.2796 129.383 33.1161 129.549 32.8344 129.736L32.3681 130.046L32.0798 129.423C29.8794 124.683 26.0219 121.481 23.2223 122.073C22.8536 122.151 22.84 122.145 22.84 121.912C22.84 121.479 24.0695 121.124 24.819 121.339ZM125.928 121.481C126.44 121.635 126.512 121.684 126.512 121.883C126.512 122.11 126.508 122.111 125.523 122.063C122.718 121.928 119.833 124.473 117.32 129.296C117.15 129.624 116.998 129.907 116.982 129.927C116.966 129.946 116.748 129.849 116.498 129.711L116.042 129.46L116.217 129.031C116.418 128.538 117.649 126.51 118.534 125.214C120.735 121.989 123.301 120.694 125.928 121.481ZM75.1387 122.467C75.8802 123.42 76.0543 125.158 76.1202 132.275L76.1247 132.744L75.6619 132.959C75.4074 133.077 74.9511 133.201 74.6482 133.232L74.0969 133.29L74.1396 132.598L74.1824 131.907L74.0979 132.583C74.0144 133.251 74.0104 133.259 73.7608 133.259H73.5088L73.5314 129.878C73.5566 126.087 73.5953 125.684 74.1261 123.698C74.5979 121.933 74.6628 121.855 75.1387 122.467ZM74.2387 124.27L73.8489 125.395L73.8982 126.798C73.9253 127.569 74.0023 128.561 74.0687 129.002C74.1351 129.443 74.195 130.277 74.2015 130.855L74.2131 131.907L74.3715 130.504C74.4873 129.48 74.5345 128.441 74.5481 126.648C74.5582 125.284 74.606 123.994 74.6553 123.744C74.8218 122.899 74.6301 123.142 74.2387 124.27ZM65.661 124.121C65.0719 125.128 63.7302 126.869 63.2382 127.266C62.8227 127.601 62.72 127.808 63.0249 127.698C64.2816 127.242 65.7042 125.619 66.0287 124.27C66.2546 123.331 66.1489 123.288 65.661 124.121ZM83.4494 123.558C83.4494 124.713 85.1457 127.117 86.2972 127.594C86.8481 127.822 86.8355 127.744 86.2333 127.194C85.8988 126.889 85.4818 126.352 85.0823 125.714C83.9338 123.88 83.4494 123.24 83.4494 123.558ZM24.973 124.008C27.0139 124.653 29.6374 127.508 30.8865 130.445C31.1074 130.965 29.9342 129.626 28.8461 128.116C28.2832 127.334 27.7172 126.749 27.526 126.749C27.4898 126.749 27.4174 126.895 27.3656 127.074C27.105 127.969 25.2743 131.348 24.9725 131.492C24.896 131.529 24.968 131.265 25.1717 130.761C25.5233 129.891 26.4424 126.075 26.3292 125.955C26.2151 125.833 25.0998 125.246 24.9825 125.246C24.9202 125.246 24.8291 125.45 24.7702 125.722C24.5031 126.96 23.8104 128.428 23.0815 129.303C22.8516 129.578 22.3968 130.192 22.0703 130.668C21.5456 131.433 21.4158 131.562 20.9449 131.797C20.6521 131.943 20.1526 132.245 19.8352 132.469C18.2133 133.613 17.1231 133.8 18.4417 132.709C19.556 131.787 19.567 131.676 18.5 132.15C15.9751 133.271 13.6283 133.775 12.7787 133.378C12.5473 133.271 12.3833 133.321 15.1375 132.659C19.4332 131.626 21.8092 129.1 22.6508 124.672C22.7857 123.96 22.7937 123.945 23.0759 123.887C23.2339 123.855 23.3994 123.81 23.4437 123.788C23.5815 123.721 24.4674 123.848 24.973 124.008ZM126.371 123.906C126.493 123.936 126.592 124.019 126.592 124.091C126.592 125.297 127.757 128.155 128.783 129.462C130.269 131.358 131.517 132.035 135.069 132.873C136.977 133.323 137.288 133.42 137.167 133.531C136.752 133.908 132.072 132.918 129.774 131.967C129.104 131.69 129.128 131.764 129.912 132.393C130.732 133.052 131.404 133.787 130.797 133.362C130.72 133.308 130.295 133.099 129.852 132.898C126.717 131.475 124.589 128.96 123.963 125.936C123.864 125.457 123.782 125.247 123.697 125.25C123.508 125.255 122.285 125.923 122.294 126.016C122.299 126.061 122.379 126.458 122.473 126.899C123.017 129.457 123.171 130.041 123.497 130.774C123.688 131.204 123.811 131.556 123.77 131.556C123.728 131.556 123.695 131.522 123.695 131.48C123.695 131.438 123.44 131.043 123.128 130.603C122.57 129.816 121.62 128.008 121.325 127.174C121.134 126.631 121.166 126.621 120.424 127.475C119.889 128.091 119.837 128.133 120.074 127.753C121.259 125.858 122.972 124.364 124.373 124.005C124.724 123.915 125.032 123.815 125.057 123.783C125.103 123.726 125.958 123.806 126.371 123.906ZM56.646 125.296C56.4674 125.382 55.9669 125.437 55.2777 125.447C54.2982 125.462 54.2147 125.476 54.4325 125.597C55.0121 125.918 56.2114 125.865 56.8452 125.491C57.3428 125.197 57.1818 125.04 56.646 125.296ZM92.5106 125.279C92.6233 125.646 93.0881 125.775 94.1124 125.726C95.7715 125.646 95.7106 125.426 93.9936 125.297C93.5731 125.266 93.0569 125.214 92.8461 125.183C92.5262 125.136 92.4714 125.152 92.5106 125.279ZM65.4783 126.523C65.2168 127.005 64.8349 127.482 63.9546 128.429C63.2332 129.206 63.1044 129.418 63.4274 129.3C64.1266 129.045 65.0875 128.103 65.4572 127.309C65.6333 126.932 65.8114 126.148 65.7208 126.148C65.6997 126.148 65.5905 126.317 65.4783 126.523ZM83.8523 126.233C83.8483 127.031 85.023 128.772 85.8143 129.14C86.5226 129.469 86.4819 129.384 85.114 127.674C84.4208 126.807 83.8528 126.159 83.8523 126.233ZM43.3847 127.663C43.4088 127.739 43.5834 128.285 43.7726 128.877C43.9617 129.469 44.1343 129.931 44.1564 129.904C44.3068 129.716 44.0955 128.494 43.8314 128.026C43.6538 127.711 43.3102 127.432 43.3847 127.663ZM105.888 127.875C105.503 128.507 105.285 129.44 105.417 129.885C105.468 130.054 105.655 129.529 106.208 127.675C106.281 127.431 106.083 127.554 105.888 127.875ZM42.362 128.367C42.3942 128.496 42.5939 129.032 42.8052 129.559L43.1905 130.516L42.6537 129.86C41.3121 128.216 41.214 128.923 42.4877 131.06C42.9973 131.915 43.3771 132.723 43.4637 133.135C43.5613 133.598 43.687 133.358 43.687 132.708C43.687 132.05 43.7298 131.954 43.921 132.182C44.1312 132.432 43.9899 130.688 43.7464 130.027C43.436 129.184 42.1939 127.696 42.362 128.367ZM81.1926 132.808C81.1916 133.115 80.8873 133.882 80.7947 133.811C80.7494 133.776 80.7127 133.48 80.7127 133.153C80.7127 132.454 80.6186 132.387 80.4747 132.983C80.1462 134.349 79.6673 135.093 79.0501 135.199C78.3392 135.32 78.2613 134.789 78.956 134.557C80.2423 134.125 80.6528 131.742 80.0255 128.351C79.9999 128.213 80.2524 129.115 80.5864 130.354C80.9205 131.594 81.1931 132.698 81.1926 132.808ZM77.3789 128.514C79.0073 130.06 79.0551 132.767 77.4805 134.313C74.4973 137.242 70.8124 135.773 70.8124 131.654C70.8124 130.175 71.6263 128.254 71.8904 129.11C71.9815 129.407 71.9397 129.569 71.662 129.99C71.1514 130.766 71.0845 131.349 71.574 130.759L71.8502 130.426L71.655 131.016C71.0015 132.995 72.0283 134.361 74.1698 134.361C75.3988 134.361 76.4693 133.899 77.2104 133.049C77.4131 132.816 77.5716 132.7 77.5897 132.769C77.6525 133.003 77.968 132.665 78.0535 132.272C78.217 131.517 77.7315 129.64 77.2229 129.06C77.0891 128.907 77.0101 128.712 77.0101 128.534C77.0101 128.186 77.0323 128.185 77.3789 128.514ZM106.495 128.977C105.675 130.03 105.424 130.747 105.54 131.707C105.6 132.205 105.678 132.272 105.804 131.932C105.871 131.751 105.879 131.8 105.846 132.176C105.756 133.229 105.982 133.706 106.159 132.833C106.259 132.339 107.021 130.807 107.791 129.549C107.988 129.227 108.049 129.052 107.997 128.948C107.941 128.834 107.733 129.045 107.046 129.91L106.168 131.017L106.39 130.411C106.511 130.076 106.74 129.454 106.898 129.027C107.252 128.069 107.207 128.063 106.495 128.977ZM69.3193 130.117C69.0944 132.128 69.2996 133.248 70.0341 134.012C70.2369 134.223 70.5166 134.593 70.6554 134.834L70.9084 135.271L70.4778 135.203C69.9627 135.121 70.1076 135.314 69.5809 134.01C68.9103 132.351 68.8871 132.33 68.8781 133.359L68.871 134.21L68.624 133.601L68.377 132.993L68.8901 130.931C69.1729 129.798 69.4148 128.884 69.4279 128.899C69.4415 128.916 69.3922 129.463 69.3193 130.117ZM56.5655 129.256C55.7878 129.648 54.0754 130.307 53.3766 130.482C52.7276 130.645 52.6567 130.776 53.1225 130.951C53.7101 131.173 54.347 131.096 55.5614 130.656C56.1802 130.432 56.9398 130.225 57.2497 130.198L57.8131 130.148L57.3302 130.351C57.0646 130.463 56.5031 130.672 56.0826 130.815C54.7349 131.273 54.9291 131.389 56.4689 131.045C57.2693 130.867 57.4741 130.853 57.8317 130.952C58.5436 131.15 58.4445 131.287 57.6426 131.214C56.4855 131.108 56.6113 131.451 57.8856 131.875C58.3424 132.027 58.2045 132.136 57.5314 132.156C56.9846 132.171 56.4171 132.292 56.5253 132.37C56.5696 132.402 56.9861 132.558 57.4509 132.718L58.2961 133.008L57.8197 133.059C57.2477 133.119 57.2995 133.203 58.1547 133.604C58.938 133.971 58.9606 134.076 58.2412 134.004L57.6521 133.946L57.8348 134.145C58.0083 134.336 58.7101 134.655 59.7273 135.008C60.1609 135.158 60.1841 135.181 60.0593 135.335C59.9351 135.49 59.9557 135.509 60.3586 135.613C61.0494 135.79 61.7974 136.475 61.7974 136.932C61.7974 136.999 61.8392 137.086 61.8905 137.125C62.0535 137.25 61.896 136.27 61.648 135.615C61.3175 134.742 60.8018 134.085 60.0352 133.559C59.268 133.032 59.2162 132.902 59.4104 131.996C59.8843 129.783 58.3851 128.339 56.5655 129.256ZM91.1141 129.309C90.1532 129.892 89.9334 130.545 90.2045 132.012C90.366 132.886 90.3082 133.047 89.6869 133.456C88.6974 134.106 88.143 134.916 87.7944 136.22C87.5544 137.116 87.6198 137.186 88.0756 136.522C88.5132 135.885 88.723 135.72 89.2246 135.616C89.5787 135.542 89.6285 135.479 89.4791 135.293C89.4162 135.215 89.7141 135.052 90.5456 134.711C91.9446 134.136 92.2163 133.905 91.3898 133.995C90.6176 134.078 91.0608 133.508 91.9245 133.306C92.3894 133.198 92.2757 133.059 91.7198 133.055C91.0653 133.052 91.256 132.895 92.1519 132.7C93.2667 132.458 93.2944 132.332 92.2631 132.195C91.7761 132.13 91.3596 132.07 91.3375 132.062C91.2469 132.026 92.1333 131.616 92.5448 131.502L92.9875 131.38L92.746 131.259C92.6052 131.189 92.2475 131.153 91.8883 131.172C91.1961 131.211 91.1423 131.134 91.7374 130.956C92.1469 130.834 92.3597 130.854 93.4513 131.118C94.388 131.345 94.539 131.276 93.9514 130.889C93.389 130.52 92.9457 130.354 92.2228 130.246C91.7329 130.172 91.7459 130.169 92.4241 130.199C92.9191 130.221 93.4674 130.337 94.1546 130.563C94.961 130.828 95.3207 130.895 95.9657 130.899C96.9793 130.906 97.0231 130.759 96.1266 130.359C95.7725 130.202 95.0677 129.885 94.5606 129.657C92.7531 128.842 92.0111 128.767 91.1141 129.309ZM40.7894 129.574C40.7894 129.995 41.1697 130.78 41.798 131.656C42.2115 132.233 42.53 132.806 42.7845 133.434C43.2368 134.551 43.3112 134.581 43.2725 133.634C43.2222 132.396 42.8464 131.658 41.4826 130.117C40.8724 129.428 40.7894 129.363 40.7894 129.574ZM107.788 130.605C106.458 132.243 106.145 132.919 106.263 133.9C106.33 134.459 106.4 134.475 106.631 133.985C106.729 133.778 107.167 132.972 107.605 132.193C108.384 130.811 108.842 129.779 108.79 129.528C108.775 129.459 108.324 129.944 107.788 130.605ZM37.0773 129.979C37.123 130.158 37.2543 130.89 37.3695 131.606C38.7238 140.035 42.4872 148.681 47.5501 154.998C52.2377 160.846 59.432 165.924 65.339 167.552C67.7713 168.224 70.2917 168.728 71.6978 168.826C72.4725 168.881 73.4504 168.96 73.871 169.002C76.6706 169.283 82.642 168.178 86.1664 166.727C96.6201 162.422 104.137 154.394 108.97 142.373C110.31 139.041 112.265 131.632 112.265 129.886C112.265 129.698 112.299 129.652 112.406 129.691C112.483 129.719 112.686 129.773 112.857 129.811L113.166 129.88L113.112 130.443C112.972 131.899 112.184 135.257 111.302 138.158C105.798 156.261 92.1539 168.829 76.4869 170.229C73.5339 170.492 70.8888 170.168 66.5464 169.009C52.7503 165.326 41.0962 151.826 37.1271 134.928C36.8182 133.611 36.2014 130.325 36.2014 129.993C36.2014 129.904 36.5405 129.754 36.9399 129.665C36.9696 129.659 37.0315 129.8 37.0773 129.979ZM143.334 129.895C143.334 129.915 143.579 130.112 143.878 130.334C144.575 130.851 146.222 132.372 146.804 133.037C149.78 136.44 148.969 141.708 145.32 142.666L144.491 142.883L143.742 142.675C142.926 142.449 142.821 142.395 142.301 141.934C141.102 140.873 139.037 142.05 137.238 144.822C135.449 147.577 133.089 153.272 131.731 158.114C130.898 161.082 128.404 162.687 125.908 161.862C125.774 161.818 125.566 162.129 124.661 163.728C119.456 172.917 115.154 178.204 108.16 184.006C100.625 190.257 95.4948 192.754 84.3076 195.616C81.0543 196.449 72.722 196.84 68.4379 196.361C59.1694 195.326 48.6005 190.357 40.0247 183.004C37.205 180.587 30.4961 172.927 28.6056 169.967C26.8414 167.205 24.812 163.75 23.7732 161.74C23.7691 161.731 23.5302 161.787 23.2424 161.863C20.8307 162.496 18.3506 160.903 17.7183 158.312C16.7941 154.526 14.2386 148.003 12.7329 145.587C10.4339 141.899 8.68673 140.91 6.74137 142.193C4.69137 143.546 2.21076 142.513 1.15583 139.869L0.855999 139.118L0.893729 140.42C0.968686 142.998 1.66895 144.629 3.1535 145.684C4.60535 146.716 7.19564 146.708 8.85274 145.667C10.2724 144.775 13.0076 148.253 15.2341 153.779C15.9087 155.455 17.507 160.21 17.8088 161.442C18.4759 164.163 20.0631 165.423 23.0367 165.595L24.1595 165.66L25.0359 167.206C28.7897 173.829 30.6757 176.375 36.7246 182.982C42.5848 189.384 50.4986 194.518 59.4229 197.707C66.319 200.172 72.4181 200.738 82.564 199.858C86.3828 199.527 96.2162 196.486 100.025 194.459C105.609 191.487 111.941 186.538 116.582 181.519C120.356 177.438 123.078 173.62 126.55 167.538L127.594 165.71H128.162C131.495 165.71 132.983 164.483 134.047 160.852C136.24 153.372 139.382 147.099 141.649 145.675C142.236 145.307 142.289 145.307 142.813 145.68C144.248 146.702 147.027 146.685 148.605 145.645C151.42 143.791 151.639 137.726 149.011 134.405C147.843 132.928 143.334 129.346 143.334 129.895ZM34.8778 131.004C34.9422 131.196 35.1042 132.037 35.238 132.874C36.7005 142.033 41.9067 152.653 48.3027 159.521C54.3344 165.999 63.1542 170.853 70.3697 171.667C70.6796 171.702 71.5418 171.822 72.2858 171.934C73.9052 172.179 74.1437 172.17 78.6199 171.722C81.4366 171.44 86.1307 169.928 89.6265 168.177C101.191 162.385 110.881 148.804 113.833 134.251C114.484 131.044 114.585 130.655 114.764 130.655C115.315 130.655 117.775 132.7 120.531 135.449C122.91 137.822 124.226 138.952 125.483 139.704C126.357 140.227 126.448 140.356 126.192 140.701C126.052 140.891 124.472 140.034 123.103 139.024C121.376 137.752 119.908 136.355 118.392 134.545C117.8 133.838 117.281 133.259 117.238 133.259C117.056 133.259 118.317 135.701 119.066 136.802C119.954 138.104 119.348 137.575 117.819 135.715C117.177 134.933 116.38 134.03 116.048 133.708C115.716 133.385 115.309 132.962 115.143 132.769L114.841 132.417L114.839 132.713C114.838 132.875 114.745 133.324 114.632 133.71C114.52 134.095 114.247 135.154 114.025 136.063C112.936 140.528 110.26 147.203 108.235 150.504C107.774 151.257 107.069 152.426 106.671 153.101C106.272 153.775 105.657 154.691 105.303 155.137C104.948 155.582 104.315 156.459 103.894 157.085C101.078 161.279 97.4708 164.597 92.2963 167.753C91.1634 168.443 90.0566 169.163 89.8368 169.351C89.2658 169.839 86.669 170.917 85.358 171.209C85.1019 171.267 84.3821 171.518 83.7578 171.768C83.134 172.018 82.239 172.311 81.7686 172.418C81.2988 172.527 80.6604 172.725 80.3505 172.861C79.9988 173.015 79.4289 173.151 78.8353 173.222C78.3116 173.285 77.4242 173.449 76.8632 173.586C75.1392 174.008 74.6165 173.999 71.4538 173.487C69.5094 173.173 68.542 172.974 68.2341 172.824C67.9922 172.707 67.4136 172.527 66.9488 172.425C66.484 172.323 65.5292 172.008 64.8274 171.725C64.1251 171.443 62.9479 171.059 62.2114 170.871L60.8718 170.53L58.94 169.33C57.8775 168.669 56.3744 167.745 55.5996 167.275C51.2567 164.639 47.2658 160.841 44.5357 156.744C44.3164 156.414 43.8244 155.739 43.4431 155.244C41.6758 152.948 38.9929 148.113 37.691 144.877C36.2336 141.256 35.2733 138.478 34.8351 136.614C34.6535 135.843 34.3803 134.784 34.2279 134.26C34.075 133.737 33.9271 133.117 33.8984 132.883C33.8697 132.649 33.8285 132.458 33.8068 132.458C33.7052 132.458 32.3253 134.225 31.617 135.262C30.3206 137.16 29.8879 137.297 30.9127 135.485C31.7513 134.003 32.0964 133.368 32.0964 133.311C32.0964 133.214 30.551 134.705 29.6877 135.634C27.7152 137.757 24.974 139.728 23.6046 140.01C23.331 140.065 23.4039 139.995 24.0876 139.542C25.2693 138.759 26.1647 137.976 28.2112 135.937C30.8387 133.318 32.0169 132.299 33.5855 131.286C34.7199 130.553 34.7264 130.552 34.8778 131.004ZM54.3943 131.953C54.2595 132.059 54.271 132.067 54.835 132.251C55.498 132.468 56.3578 132.339 56.1118 132.061C56.0046 131.939 54.5291 131.847 54.3943 131.953ZM93.9534 131.93C93.4478 131.979 93.3497 132.091 93.6697 132.256C94.0777 132.466 95.4143 132.186 95.118 131.952C95.0013 131.861 94.7432 131.856 93.9534 131.93ZM77.5414 133.447C77.3125 133.763 76.825 134.086 75.8576 134.561C74.8993 135.032 74.8248 135.216 75.6227 135.144C76.4789 135.067 77.7889 134.024 77.7225 133.472L77.6943 133.236L77.5414 133.447ZM97.495 134.07C95.8173 134.483 95.2362 134.769 95.9294 134.841C96.2112 134.871 96.4169 134.824 98.1188 134.351C98.9307 134.125 99.2155 133.962 98.8029 133.959C98.7033 133.958 98.5494 133.938 98.4609 133.914C98.3723 133.891 97.9377 133.961 97.495 134.07ZM50.8507 134.103C51.4634 134.384 54.0703 134.915 54.0703 134.759C54.0703 134.528 51.9544 133.957 51.138 133.967C50.579 133.974 50.574 133.976 50.8507 134.103ZM83.6104 134.895C83.6104 135.3 83.5917 136.528 83.5686 137.625C83.5294 139.499 83.5344 139.595 83.6516 139.22C84.0812 137.842 84.2196 135.514 83.9223 134.655C83.6873 133.974 83.6104 134.034 83.6104 134.895ZM65.7379 135.262C65.5146 137.266 65.6645 139.369 66.0312 139.369C66.0986 139.369 65.9995 135.449 65.9135 134.711C65.8557 134.215 65.8536 134.222 65.7379 135.262ZM72.1002 134.45C72.1002 134.919 72.7109 135.329 73.5541 135.427C74.3731 135.521 74.2609 135.359 73.1063 134.781C72.2541 134.354 72.1002 134.303 72.1002 134.45ZM10.4847 134.878C12.9915 135.398 15.0953 137.554 17.4084 141.973C19.3744 145.728 19.5841 146.251 19.7341 147.766C19.7919 148.353 19.8332 148.844 19.8251 148.857C19.8171 148.87 19.4911 148.126 19.1002 147.204C15.8685 139.584 12.3667 135.745 8.56398 135.653C8.33659 135.647 8.0599 135.61 7.94923 135.571L7.748 135.499L8.02972 135.31C9.05849 134.618 9.15458 134.602 10.4847 134.878ZM140.904 135.135C141.557 135.535 141.549 135.659 140.868 135.661C137.108 135.675 133.474 139.603 130.287 147.099C129.873 148.074 129.527 148.863 129.519 148.852C129.422 148.73 129.757 146.571 129.956 146.043C130.274 145.197 132.149 141.516 132.886 140.291C135.54 135.875 138.745 133.814 140.904 135.135ZM67.1923 138.572C67.5444 139.43 68.1808 140.088 68.9943 140.433C69.5321 140.661 69.528 140.548 68.9847 140.169C68.7186 139.983 68.2397 139.484 67.8689 139.005C67.1485 138.075 66.9312 137.936 67.1923 138.572ZM63.2467 138.542C63.2488 139.476 63.3534 140.197 63.4601 140.015C63.6628 139.67 63.5571 138.267 63.3288 138.267C63.2835 138.267 63.2467 138.391 63.2467 138.542ZM86.1654 138.333C86.0638 138.528 86.009 139.907 86.0965 140.066C86.2384 140.326 86.2736 140.118 86.2494 139.156C86.2369 138.639 86.1991 138.269 86.1654 138.333ZM55.5785 138.993C56.062 139.939 56.2199 140.295 56.2773 140.57C56.3236 140.791 56.3125 140.785 56.1857 140.516C55.7848 139.663 55.082 138.929 54.4129 138.663C53.8776 138.451 53.933 138.367 54.6081 138.367H55.2586L55.5785 138.993ZM94.7985 138.403C94.7985 138.422 94.5385 138.726 94.2205 139.077L93.642 139.717L93.9232 139.167C94.0777 138.865 94.2311 138.561 94.2648 138.492C94.3166 138.384 94.7985 138.304 94.7985 138.403ZM96.4084 138.957C96.4084 139.006 96.3087 139.076 96.187 139.112C96.0653 139.148 95.8932 139.204 95.8047 139.235C95.5325 139.333 95.7337 139.158 96.0602 139.013C96.438 138.845 96.4084 138.85 96.4084 138.957ZM80.8334 140.038C80.4793 140.403 79.9968 140.812 79.7619 140.947C79.2624 141.233 79.2603 141.334 79.7574 141.168C80.5286 140.909 81.2439 140.322 81.4844 139.749C81.7208 139.186 81.6147 139.233 80.8334 140.038ZM71.3698 140.456C71.5861 140.959 72.5902 141.008 72.971 140.534L73.1833 140.27H72.2365C71.3381 140.27 71.2938 140.279 71.3698 140.456ZM76.5986 140.508C76.9246 140.94 77.9655 140.932 78.1979 140.495L78.3176 140.27H77.3683H76.4185L76.5986 140.508ZM57.9268 141.021C57.9288 141.192 57.8941 141.174 57.6899 140.894C57.3825 140.473 57.381 140.286 57.6879 140.588C57.8182 140.716 57.9258 140.911 57.9268 141.021ZM92.1424 140.502C92.1424 140.574 92.0337 140.763 91.9009 140.921C91.6187 141.257 91.5769 141.082 91.8405 140.667C92.0387 140.354 92.1424 140.297 92.1424 140.502ZM21.7398 141.196C21.8489 141.486 22.0748 142.263 22.2408 142.924C23.833 149.258 27.8998 157.95 32.4566 164.759C41.5958 178.414 55.5146 187.499 70.1282 189.346C71.0579 189.464 72.1445 189.601 72.5429 189.651C73.6547 189.791 75.8561 189.766 76.826 189.6C77.3039 189.52 78.4368 189.383 79.3444 189.298C84.0878 188.851 90.9264 186.691 95.9068 184.069C110.249 176.514 122.247 160.662 127.084 142.874C127.571 141.082 127.729 140.674 127.936 140.672C128.107 140.671 128.109 140.682 127.998 141.096C127.935 141.33 127.725 142.153 127.53 142.924C124.879 153.422 119.373 164.22 112.766 171.881C104.747 181.177 96.2086 186.501 84.375 189.585C72.5907 192.656 57.047 189.128 46.3432 180.954C37.9536 174.547 32.2317 167.579 27.5341 158.048C24.5006 151.893 23.8899 150.28 21.9903 143.4C21.3253 140.99 21.2548 140.671 21.3886 140.671C21.4928 140.671 21.6029 140.836 21.7398 141.196ZM96.3591 140.924C96.2046 141.218 96.1538 141.206 96.2197 140.892C96.2454 140.77 96.3173 140.671 96.3792 140.671C96.4712 140.671 96.4677 140.718 96.3591 140.924ZM81.1972 141.168C81.1076 141.385 81.0347 141.595 81.0347 141.633C81.0347 141.792 81.3526 141.33 81.4276 141.061C81.5488 140.629 81.3873 140.704 81.1972 141.168ZM117.579 144.742L118.175 145.959L119.466 146.689C120.176 147.09 120.766 147.426 120.778 147.435C120.789 147.443 120.632 147.897 120.428 148.442C120.223 148.988 120.025 149.534 119.988 149.655C119.92 149.871 119.891 149.86 118.609 149.123L117.3 148.37L114.977 148.835C113.699 149.091 112.638 149.281 112.619 149.257C112.59 149.222 113.433 146.827 113.521 146.694C113.534 146.674 114.13 146.574 114.846 146.473C115.562 146.371 116.158 146.275 116.169 146.259C116.181 146.242 115.853 145.623 115.44 144.883C114.581 143.34 114.601 143.72 115.284 141.898L115.669 140.871L116.325 142.198C116.686 142.928 117.25 144.073 117.579 144.742ZM68.1587 141.041C68.1572 141.106 68.2487 141.287 68.3624 141.441C68.4983 141.626 68.541 141.654 68.4887 141.522C68.3624 141.203 68.1617 140.91 68.1587 141.041ZM93.8654 142.924C93.8306 143.404 93.5741 145.355 93.3195 147.081C93.2989 147.218 93.2924 146.407 93.3044 145.278C93.3266 143.248 93.3839 142.716 93.6782 141.822L93.7773 141.522L93.8432 141.923C93.8794 142.143 93.8895 142.594 93.8654 142.924ZM62.0424 141.948C62.0515 142.395 62.2557 143.315 62.3553 143.356C62.4796 143.407 62.4303 142.513 62.2824 142.029C62.1928 141.737 62.0369 141.684 62.0424 141.948ZM87.2405 142.088C87.1047 142.572 87.1213 143.431 87.2636 143.284C87.3864 143.157 87.5544 142.432 87.5544 142.028C87.5544 141.666 87.3476 141.705 87.2405 142.088ZM58.0576 142.796C58.3871 143.652 58.4193 143.898 58.1638 143.616C57.9439 143.372 57.6964 142.704 57.6944 142.348C57.6914 141.93 57.7538 142.007 58.0576 142.796ZM91.9497 142.396C91.921 142.574 91.7505 142.991 91.5704 143.323C91.2001 144.005 91.2001 144.009 91.5679 142.894C91.8425 142.06 92.0463 141.795 91.9497 142.396ZM66.1847 143.149C66.2767 143.428 66.3316 145.575 66.2682 146.415L66.2108 147.181L65.9558 146.786C65.5166 146.103 65.4522 146.302 65.8129 147.232C66.3084 148.512 66.2033 148.566 65.5 147.392C64.9159 146.418 64.9174 146.746 65.505 148.358L65.824 149.234L65.5523 148.875C65.4029 148.678 65.2625 148.452 65.2404 148.375C65.2183 148.296 65.1715 148.266 65.1368 148.306C65.0467 148.41 65.3113 149.565 65.5402 150.065C65.6459 150.297 65.7042 150.486 65.6705 150.486C65.5754 150.486 65.2585 150.038 65.2585 149.904C65.2585 149.838 65.2218 149.785 65.1765 149.785C65.0472 149.785 65.17 150.275 65.4693 150.953C65.7948 151.691 65.7902 151.624 65.5357 151.917C65.2942 152.196 65.3767 152.349 65.7988 152.403C66.1047 152.442 66.5081 152.017 66.8552 151.287C67.3618 150.223 67.0454 144.996 66.3743 143.35C66.2209 142.974 66.076 142.82 66.1847 143.149ZM83.0992 143.75C82.1193 149.193 82.3472 152.389 83.7145 152.389C84.1919 152.389 84.3876 152.184 84.0958 151.99C83.8252 151.81 83.8337 151.549 84.131 150.936C84.5773 150.012 84.6245 149.56 84.21 150.173C83.8654 150.683 83.8443 150.535 84.1451 149.724C84.4449 148.917 84.5727 148.283 84.4354 148.283C84.3911 148.283 84.3106 148.413 84.2578 148.573C84.1713 148.832 83.7713 149.401 83.7713 149.265C83.7713 149.236 83.9127 148.833 84.0858 148.371C84.5601 147.104 84.7136 146.06 84.2643 147.156C84.1798 147.362 83.96 147.734 83.7764 147.982L83.4423 148.433L83.4962 148.082C83.5258 147.889 83.6541 147.474 83.7814 147.159C84.0988 146.373 84.0676 146.244 83.6908 146.78L83.3739 147.231L83.3714 145.153C83.3689 142.956 83.303 142.617 83.0992 143.75ZM73.7618 144.026C73.2613 147.017 73.2789 152.343 73.7935 153.598C74.3504 154.956 75.5482 154.646 75.9673 153.035C76.3199 151.68 76.2419 146.634 75.8289 144.062C75.6579 142.999 75.5623 145.422 75.7178 146.88C75.8244 147.881 75.8133 148.755 75.6881 149.184C75.5704 149.588 75.5533 149.547 75.3943 148.508C75.2273 147.413 75.0934 148.012 75.0668 149.975L75.0547 150.837L74.9762 149.96C74.8892 148.987 74.7921 148.837 74.7167 149.56C74.6895 149.821 74.6437 150.148 74.6155 150.286L74.5642 150.536L74.5431 150.286C74.532 150.148 74.4993 149.551 74.4707 148.959C74.4108 147.715 74.3328 147.603 74.1915 148.558C73.9963 149.878 73.9515 149.538 73.9716 146.88C73.9852 145.093 73.9626 144.144 73.9022 143.976L73.8121 143.725L73.7618 144.026ZM58.0149 144.763C58.2604 145.735 58.1099 149.143 57.8363 148.802C57.7357 148.677 57.5998 145.358 57.6622 144.543C57.7216 143.769 57.7719 143.801 58.0149 144.763ZM92.0307 145.836C91.9789 147.203 91.8209 148.783 91.7359 148.783C91.2414 148.783 91.2987 146.216 91.839 144.176L91.9321 143.826L92.002 144.276C92.0407 144.524 92.0538 145.226 92.0307 145.836ZM35.1309 144.843C36.8091 145.834 37.6241 149.393 36.4902 150.778C36.059 151.304 36.0852 151.322 35.5152 150.081L35.0524 149.073L35.2647 148.798C35.7441 148.175 35.3864 146.88 34.7355 146.88C34.325 146.88 34.2943 147.19 34.5594 148.654C34.9795 150.971 34.8517 151.993 34.0463 152.756C32.777 153.959 31.1597 153.16 30.2637 150.887C29.4689 148.87 29.5559 147.564 30.558 146.467C30.9791 146.005 30.9273 145.964 31.5365 147.248L32.0033 148.233L31.8061 148.418C30.9494 149.225 31.5863 151.409 32.5235 150.877C32.9154 150.655 32.9541 150.3 32.7348 148.944C32.4153 146.966 32.4878 146.01 33.0115 145.294C33.5095 144.612 34.414 144.42 35.1309 144.843ZM70.2489 145.536C70.2489 145.645 70.1081 146.296 69.9365 146.983C69.3097 149.488 69.1799 150.919 69.4707 152.118C69.7403 153.229 70.5654 153.964 71.1826 153.644L71.4563 153.501L71.4492 152.67C71.4321 150.621 71.1439 149.074 71.0161 150.348C70.9074 151.429 70.8229 151.382 70.8164 150.236C70.8098 148.961 70.7429 148.301 70.6413 148.5C70.6036 148.573 70.5714 148.791 70.5684 148.984C70.5659 149.177 70.5105 149.469 70.4456 149.635C70.3395 149.906 70.3334 149.792 70.3842 148.433C70.4693 146.171 70.4627 145.604 70.3495 145.463C70.269 145.363 70.2489 145.377 70.2489 145.536ZM79.203 147.757C79.2447 149.879 79.1909 150.36 79.0551 149.083C78.9449 148.053 78.8 148.398 78.7095 149.905L78.6531 150.837L78.5888 150.311C78.4514 149.19 78.2597 149.891 78.1445 151.938L78.0656 153.341L78.2824 153.558C78.8046 154.081 79.7282 153.333 80.0175 152.154C80.3882 150.641 80.1362 147.828 79.4661 146.004C79.1713 145.201 79.1552 145.308 79.203 147.757ZM56.5585 149.485C56.6601 149.898 56.8483 150.547 56.9775 150.927C57.2613 151.762 57.2381 151.829 56.8573 151.275C56.3965 150.604 56.2219 149.916 56.1807 148.608C56.1354 147.158 56.2546 146.521 56.3256 147.832C56.3527 148.328 56.4574 149.071 56.5585 149.485ZM93.2345 150.504C93.1817 151.001 92.7777 152.534 92.5795 152.99C92.248 153.753 92.5111 150.965 92.8678 149.935L93.0408 149.434L93.1636 149.725C93.2516 149.932 93.2717 150.154 93.2345 150.504ZM71.6973 151.312C71.6973 151.326 71.662 151.602 71.6198 151.925C71.5166 152.708 71.5896 153.358 71.7883 153.423C71.9111 153.463 71.9412 153.413 71.9498 153.156C71.9815 152.192 71.8955 151.287 71.7717 151.287C71.731 151.287 71.6978 151.299 71.6973 151.312ZM77.7079 151.648C77.6792 151.863 77.6556 152.375 77.6551 152.787L77.6541 153.535L77.8211 153.327C78.1038 152.976 78.13 151.888 77.8669 151.44C77.7693 151.274 77.7547 151.293 77.7079 151.648ZM40.235 154.509C41.226 156.171 42.0802 157.605 42.1326 157.698C42.2146 157.84 42.1673 157.92 41.8106 158.249C41.5812 158.461 41.2779 158.742 41.137 158.874L40.8804 159.113L40.2516 158.059C39.9055 157.479 39.5825 157.021 39.5342 157.041C39.4693 157.068 36.3045 159.959 35.5122 160.714C35.4327 160.79 34.1258 158.741 34.1992 158.656C34.2158 158.636 35.1168 157.801 36.2014 156.799C37.286 155.796 38.2036 154.941 38.2403 154.897C38.2776 154.852 38.0331 154.357 37.697 153.796C37.3615 153.235 37.0868 152.737 37.0868 152.689C37.0868 152.601 38.2861 151.488 38.3812 151.488C38.4094 151.488 39.244 152.847 40.235 154.509ZM60.1408 153.168C60.2107 153.717 60.2681 154.529 60.2681 154.974C60.2681 156.193 60.4583 156.135 60.6897 154.847L60.7807 154.342L60.8984 154.957C61.0443 155.718 60.7415 156.724 60.255 157.092C59.9265 157.341 59.9396 157.366 59.6252 155.848C59.2896 154.23 59.3264 152.568 59.7177 151.657C59.8435 151.365 59.9663 151.803 60.1408 153.168ZM89.9238 151.681C90.4329 152.381 90.4043 154.187 89.8479 156.456C89.6175 157.397 89.6376 157.373 89.3176 157.09C88.8035 156.634 88.4871 155.475 88.6798 154.75C88.8005 154.293 88.8936 154.365 88.961 154.968C88.9901 155.23 89.0611 155.552 89.1179 155.682L89.2216 155.921L89.3126 155.597C89.4213 155.208 89.5375 154.033 89.6119 152.564C89.6688 151.438 89.6944 151.366 89.9238 151.681ZM114.775 152.491C116.649 153.043 118.24 153.527 118.312 153.568C118.422 153.629 118.339 153.83 117.825 154.755L117.207 155.869L116.728 155.683C116.465 155.58 116.205 155.497 116.15 155.495C116.096 155.495 115.758 156.038 115.401 156.703L114.75 157.912L114.976 158.268C115.537 159.149 115.544 158.938 114.918 160.108C114.61 160.683 114.324 161.153 114.282 161.153C114.194 161.153 110.092 154.007 110.092 153.854C110.092 153.764 111.302 151.488 111.35 151.488C111.361 151.488 112.902 151.939 114.775 152.491ZM58.4002 152.337C58.6266 152.574 58.8288 154.004 58.6809 154.322C58.5501 154.604 58.2357 153.693 58.1094 152.665C58.03 152.019 58.0621 151.983 58.4002 152.337ZM91.3329 153.463C91.0618 154.669 90.8706 154.634 90.86 153.376C90.8545 152.729 90.8631 152.701 91.1563 152.38L91.4582 152.049L91.4833 152.366C91.4969 152.541 91.4295 153.034 91.3329 153.463ZM72.2748 153.004C72.2894 153.134 72.3377 153.229 72.3819 153.215C72.5007 153.178 72.4795 152.864 72.3553 152.812C72.2813 152.782 72.2562 152.842 72.2748 153.004ZM77.149 152.984C77.1037 153.2 77.156 153.314 77.2627 153.232C77.3542 153.162 77.3527 152.79 77.2612 152.79C77.2219 152.79 77.1716 152.877 77.149 152.984ZM112.878 155.068C113.264 155.661 113.625 156.206 113.679 156.282C113.76 156.392 113.854 156.277 114.195 155.647C114.425 155.224 114.601 154.866 114.586 154.854C114.535 154.81 112.306 153.99 112.24 153.99C112.205 153.991 112.491 154.476 112.878 155.068ZM85.6312 155.261C85.9114 156.718 85.9048 159.194 85.6176 160.524C85.4083 161.492 84.5184 161.659 83.9982 160.827L83.6375 160.252L83.5435 158.649C83.4247 156.635 83.4262 156.107 83.551 155.803C83.7552 155.304 83.8196 155.478 83.9243 156.811C84.1049 159.108 84.1728 159.038 84.3735 156.348C84.5124 154.487 84.5098 154.494 85.0592 154.388C85.434 154.315 85.4566 154.35 85.6312 155.261ZM65.0326 154.574C65.1242 154.686 65.2439 155.859 65.3028 157.222C65.3858 159.135 65.6459 158.698 65.7349 156.496L65.7817 155.344L65.9407 155.744C66.2511 156.527 66.0981 159.994 65.7279 160.573C65.0377 161.654 64.1256 161.492 63.9153 160.25C63.6583 158.733 63.7065 156.201 64.0164 154.9L64.1437 154.368L64.5603 154.437C64.7892 154.474 65.0019 154.536 65.0326 154.574ZM62.6823 154.992C62.7477 155.189 62.7613 155.455 62.7215 155.768C62.6889 156.03 62.6431 156.178 62.6204 156.095C62.4489 155.47 62.4283 155.433 62.3629 155.644C62.2557 155.99 62.1003 157.922 62.1304 158.524C62.1908 159.718 61.6098 158.866 61.5036 157.605C61.4412 156.861 61.6108 156.136 62.0379 155.319C62.4031 154.62 62.5364 154.553 62.6823 154.992ZM87.5081 155.043C88.236 155.948 88.2114 159.097 87.4759 159.1C87.4528 159.1 87.4462 158.847 87.4618 158.538C87.4885 158.001 87.3632 156.33 87.2566 155.8C87.2073 155.556 87.2002 155.562 87.0639 155.946L86.9225 156.345L86.9165 155.677C86.9064 154.583 87.0312 154.449 87.5081 155.043ZM67.7366 155.134C68.1275 155.689 68.4082 157.025 68.5224 158.874C68.6104 160.308 68.8544 159.808 68.951 157.998L69.0013 157.046L69.3142 158.012C70.018 160.182 69.0853 162.339 67.8488 161.4C67.4559 161.102 67.2024 160.336 67.1163 159.186C67.0263 157.979 67.146 154.989 67.2894 154.877C67.4479 154.752 67.479 154.77 67.7366 155.134ZM82.3783 155.168C82.9579 156.867 82.2807 161.586 81.4436 161.686C80.2197 161.833 79.5048 159.565 80.2227 157.815C80.5452 157.028 80.6005 157.086 80.7147 158.322C80.9003 160.335 80.9632 160.347 81.1146 158.399C81.3496 155.368 81.9356 153.87 82.3783 155.168ZM64.6418 155.406C64.6699 155.537 64.6956 155.982 64.6991 156.395C64.7041 156.99 64.7217 157.095 64.7841 156.902C64.9023 156.533 64.8415 155.271 64.7031 155.213C64.6186 155.179 64.603 155.227 64.6418 155.406ZM84.7689 155.452C84.7956 155.539 84.8227 155.979 84.8288 156.429L84.8404 157.247L84.9198 156.63C85.0044 155.972 84.9465 155.294 84.8056 155.294C84.7584 155.294 84.7417 155.365 84.7689 155.452ZM72.7396 156.29C73.0158 156.633 73.1556 157.457 73.2044 159.026C73.2301 159.84 73.2668 160.486 73.2869 160.461C73.3071 160.436 73.385 159.68 73.46 158.781C73.6159 156.916 73.6899 156.873 73.9178 158.514C74.0707 159.612 74.0466 162.951 73.8826 163.444L73.787 163.732L73.1245 163.679C71.3506 163.537 70.9351 162.875 71.0045 160.302C71.0694 157.893 71.7637 155.825 71.991 157.364C72.1239 158.263 72.2868 158.019 72.389 156.771C72.4483 156.048 72.4946 155.985 72.7396 156.29ZM77.1636 156.471C77.2073 156.677 77.2752 157.094 77.314 157.397L77.3854 157.948L77.5992 157.372C77.8784 156.62 77.9116 156.637 78.1657 157.672C78.6265 159.551 78.7377 161.119 78.4886 162.223C78.2638 163.221 77.8749 163.507 76.4965 163.688L75.8616 163.772L75.6956 163.314C75.3762 162.432 75.4265 159.898 75.8068 157.713C75.9366 156.968 76.0065 157.156 76.1187 158.549C76.3224 161.078 76.4487 161.078 76.5272 158.549C76.5906 156.53 76.9367 155.398 77.1636 156.471ZM109.528 158.872C111.163 159.843 112.306 162.146 111.954 163.761C111.769 164.608 109.091 168.636 108.806 168.494C108.675 168.428 103.893 162.658 103.913 162.59C103.993 162.309 106.738 159.015 107.054 158.82C107.875 158.314 108.614 158.33 109.528 158.872ZM65.508 159.425C65.5271 159.961 65.6449 160.165 65.6529 159.676C65.6574 159.414 65.6247 159.2 65.5805 159.2C65.5362 159.2 65.5035 159.301 65.508 159.425ZM83.9333 159.72C83.9343 160.1 83.957 160.209 84.0128 160.101C84.1154 159.904 84.1154 159.329 84.0128 159.25C83.963 159.212 83.9328 159.39 83.9333 159.72ZM68.2834 160.555C68.2462 160.74 68.2623 160.861 68.3327 160.916C68.5118 161.058 68.5717 161.012 68.5138 160.777C68.4022 160.322 68.3423 160.264 68.2834 160.555ZM81.0955 160.652C81.0699 160.82 81.093 160.903 81.1665 160.903C81.2298 160.903 81.2761 160.797 81.2761 160.652C81.2761 160.514 81.2439 160.402 81.2052 160.402C81.166 160.402 81.1167 160.514 81.0955 160.652ZM107.395 161.059C107.263 161.145 106.997 161.403 106.805 161.634L106.456 162.054L107.811 163.674C109.345 165.507 109.167 165.435 109.781 164.474C110.327 163.622 110.149 162.815 109.178 161.746C108.433 160.926 107.914 160.725 107.395 161.059ZM39.422 163.02L39.58 163.284L38.8848 164.069L38.19 164.854L37.7544 164.256C37.5149 163.926 37.2121 163.492 37.0808 163.29L36.8428 162.923L37.5486 162.154L38.2539 161.384L38.759 162.07C39.0367 162.447 39.3355 162.874 39.422 163.02ZM73.2422 162.447C73.2583 162.759 73.3086 162.957 73.38 162.986C73.469 163.023 73.4831 162.944 73.4469 162.607C73.377 161.96 73.211 161.83 73.2422 162.447ZM76.2052 162.34C76.2052 162.532 76.1841 162.772 76.1584 162.873C76.1157 163.04 76.1222 163.04 76.2389 162.861C76.3808 162.645 76.41 162.15 76.2857 162.054C76.2379 162.017 76.2052 162.134 76.2052 162.34ZM50.2038 166.963C50.7918 167.982 50.5916 169.378 49.7168 170.356C48.7947 171.389 47.8977 171.271 46.4403 169.926L45.7828 169.32L45.0589 170.512C44.661 171.168 44.3053 171.728 44.2691 171.755C44.2324 171.784 43.8963 171.512 43.522 171.152C43.1483 170.791 42.7765 170.44 42.697 170.369C42.5642 170.252 42.7297 169.948 44.6253 166.834L46.6989 163.427L48.3107 164.951C49.3999 165.982 50.0136 166.633 50.2038 166.963ZM47.1144 167.139C46.5726 168.034 46.5741 167.911 47.1003 168.362C48.1714 169.28 49.1292 168.127 48.1824 167.059C47.5174 166.31 47.62 166.302 47.1144 167.139ZM99.8448 167.563C100.083 167.651 100.397 167.876 100.604 168.106C101.022 168.573 101.037 168.54 99.9902 169.435L99.3463 169.985L99.0726 169.75C98.4106 169.183 97.2525 170.016 97.6514 170.774C97.8205 171.094 97.9608 171.084 98.9785 170.675C101.556 169.638 102.901 170.358 102.882 172.764C102.864 175.183 99.7724 177.481 98.1459 176.286C97.8149 176.042 97.2344 175.36 97.2993 175.291C97.8718 174.675 98.8709 173.914 98.978 174.011C99.7693 174.73 100.336 174.702 100.866 173.919C101.58 172.863 100.765 172.359 99.2658 172.929C97.2374 173.699 96.1025 173.216 95.8374 171.469C95.5863 169.813 97.5025 167.581 99.3115 167.424C99.381 167.418 99.6209 167.48 99.8448 167.563ZM54.5593 169.98C55.1097 170.346 55.5705 170.656 55.584 170.671C55.6122 170.7 54.6509 179.644 54.6151 179.689C54.6021 179.705 54.1755 179.438 53.6669 179.095L52.7422 178.472L52.7754 178.025C52.8625 176.854 52.9409 176.997 51.799 176.248L50.7757 175.576L50.3501 176.093L49.9251 176.61L49.019 175.995C48.5205 175.657 48.1241 175.339 48.1372 175.289C48.1538 175.226 53.4727 169.364 53.5532 169.32C53.5567 169.317 54.0094 169.614 54.5593 169.98ZM94.3609 171.695C95.0928 173.636 95.0868 174.427 94.3287 175.616L94.1752 175.857L93.803 175.524C93.3643 175.133 93.3819 175.211 93.6299 174.746C94.1159 173.831 93.9871 173.315 93.3623 173.675L92.9357 173.921L92.5358 172.858C92.3159 172.273 92.1464 171.784 92.1595 171.77C92.1881 171.739 93.9464 170.721 93.973 170.719C93.9836 170.719 94.1581 171.158 94.3609 171.695ZM52.7508 173.111L51.882 174.196L52.4992 174.611C52.8388 174.838 53.1427 175.025 53.1744 175.025C53.2393 175.025 53.7081 172.137 53.6543 172.07C53.6352 172.046 53.2287 172.515 52.7508 173.111ZM63.1582 174.433C63.5305 174.592 63.8494 174.74 63.867 174.763C63.8952 174.798 63.4193 176.616 63.3554 176.717C63.3418 176.739 62.8921 176.564 62.3563 176.329C61.814 176.091 61.3537 175.941 61.3175 175.989C61.2818 176.037 60.8989 177.361 60.4668 178.931C60.0342 180.501 59.6569 181.819 59.6282 181.861C59.5854 181.922 57.7316 181.217 57.6416 181.105C57.6265 181.086 57.9746 179.778 58.4148 178.197C58.855 176.617 59.2252 175.251 59.2383 175.161C59.2564 175.034 59.0542 174.91 58.3408 174.611C57.1687 174.12 57.219 174.215 57.539 173.091L57.8081 172.143L60.1448 173.143C61.4302 173.693 62.7859 174.274 63.1582 174.433ZM90.8168 174.428C90.3947 175.493 90.0496 176.391 90.0496 176.425C90.0496 176.459 90.8822 177.384 91.8999 178.482C92.9176 179.578 93.7235 180.507 93.6908 180.545C93.6581 180.582 93.1062 180.819 92.4643 181.071L91.2972 181.529L90.1935 180.16C89.5863 179.407 89.0742 178.811 89.0555 178.836C89.0369 178.86 88.878 179.242 88.7014 179.682L88.3809 180.484L88.6098 181.385C88.7361 181.881 88.8397 182.335 88.8407 182.395C88.8422 182.5 86.9326 183.299 86.8692 183.22C86.7953 183.128 84.8107 175.201 84.8494 175.152C84.9883 174.98 86.7933 174.339 86.8275 174.451C86.8481 174.518 87.0312 175.205 87.2334 175.976L87.6022 177.379L88.231 175.526C88.5766 174.507 88.8931 173.628 88.9338 173.573C89.0027 173.479 91.5115 172.43 91.5613 172.474C91.5734 172.485 91.2383 173.364 90.8168 174.428ZM67.311 175.531C70.181 176.082 70.5729 176.271 70.9487 177.292C71.4819 178.741 70.8008 180.323 69.4883 180.683L69.2508 180.748L69.5029 180.993C69.9431 181.422 71.083 184.839 70.7867 184.841C70.7344 184.841 70.2001 184.745 69.599 184.628L68.5063 184.414L68.2372 183.45C67.5283 180.911 67.4343 180.705 66.9448 180.618C66.7546 180.584 66.7481 180.609 66.5433 182.209C66.4291 183.103 66.3124 183.863 66.2838 183.899C66.241 183.952 64.3072 183.657 64.2297 183.587C64.2096 183.568 64.9803 177.27 65.1901 175.745C65.2736 175.136 65.2837 175.116 65.4889 175.168C65.6056 175.197 66.4256 175.36 67.311 175.531ZM82.0388 176.124C82.5192 176.415 83.054 177.057 83.2849 177.621L83.4539 178.033L83.2607 178.124C82.6958 178.391 81.6539 178.832 81.6429 178.808C81.0643 177.572 79.8967 177.461 79.3605 178.591C79.1129 179.113 79.1351 180.906 79.3982 181.638C79.9475 183.168 81.5241 182.971 81.8396 181.334C81.8929 181.059 81.9598 180.835 81.9885 180.835C82.1067 180.839 83.8 181.237 83.8242 181.267C83.969 181.447 83.4645 182.905 83.0691 183.449C82.08 184.812 79.6452 185.095 78.4393 183.988C76.8024 182.485 76.5181 178.703 77.9157 177.016C78.8332 175.908 80.9315 175.454 82.0388 176.124ZM75.0965 179.081C75.0844 180.569 75.0532 182.5 75.0265 183.372L74.9787 184.959L73.9621 184.888C73.4026 184.849 72.9323 184.802 72.9162 184.783C72.8996 184.765 72.9137 182.854 72.9464 180.536L73.0062 176.321L74.0622 176.349L75.1186 176.377L75.0965 179.081ZM67.151 177.367C67.0615 177.753 66.9644 178.89 67.0157 178.954C67.2149 179.202 68.5425 179.161 68.7518 178.9C69.1392 178.418 68.9661 177.719 68.4147 177.536C67.8081 177.335 67.1777 177.251 67.151 177.367Z" fill="black"/>
</svg>
