<svg width="150" height="200" viewBox="0 0 150 200" fill="none" xmlns="http://www.w3.org/2000/svg">
<g clip-path="url(#clip0)">
<path fill-rule="evenodd" clip-rule="evenodd" d="M37.5522 1.0244C37.5244 1.04902 30.6539 1.07911 22.2853 1.09188C2.70057 1.12288 3.0489 1.10099 1.61496 2.39216C0.793281 3.13257 0.635143 3.4043 0.284672 4.6745C-0.104265 6.08511 -0.0946642 36.2369 0.313506 95.7717C0.40433 109.077 0.384043 113.826 0.236589 113.904C0.125464 113.961 0.0367865 114.124 0.038924 114.267C0.0410604 114.488 0.065625 114.492 0.21949 114.295C0.343438 114.135 0.395804 114.524 0.393668 115.587C0.386188 118.494 0.552859 142.705 0.652224 153.125C1.09459 199.8 0.977067 197.44 2.91534 198.855C3.31069 199.144 4.16763 199.573 4.81835 199.809L6.0012 200.235L17.7548 200.216C29.6773 200.195 50.2322 200.054 59.1596 199.933C61.8533 199.896 67.2633 199.829 71.1804 199.784C75.0986 199.739 80.6677 199.668 83.5581 199.626C86.4472 199.586 91.8165 199.517 95.489 199.477C99.1626 199.435 103.209 199.366 104.483 199.326C105.756 199.285 109.322 199.216 112.408 199.172C115.492 199.128 119.66 199.06 121.667 199.019C123.676 198.979 127.242 198.909 129.592 198.864C140.925 198.644 145.631 198.474 146.563 198.248C148.321 197.823 149.413 196.662 149.783 194.829C149.979 193.849 150.092 100.878 149.902 95.9072C149.86 94.778 149.768 83.4602 149.698 70.7546C149.63 58.0499 149.558 47.313 149.538 46.8954C149.518 46.4769 149.445 37.1761 149.378 26.2267C149.238 3.59397 149.26 3.94138 147.817 2.79245C146.344 1.61983 145.682 1.56786 130.84 1.45935C123.983 1.41011 117.773 1.33989 117.038 1.30433C114.64 1.18853 37.6783 0.917713 37.5522 1.0244ZM139.298 6.63129C139.298 6.88206 139.017 6.924 138.854 6.69787C138.709 6.49726 138.921 6.21277 139.133 6.32492C139.225 6.37325 139.298 6.51094 139.298 6.63129ZM15.5334 8.59996C15.7599 8.71941 15.7631 13.8467 15.5366 14.3546C15.2042 15.1004 14.763 15.2017 11.6568 15.2446L8.78361 15.2847L8.14251 14.7558C7.50568 14.2297 7.50247 14.2187 7.55269 13.0835L7.60395 11.941L8.42886 11.8953C9.35847 11.8443 9.83076 12.1133 9.83076 12.6942C9.83076 13.0999 10.2143 13.2275 11.4378 13.2312C12.8781 13.2349 12.9733 13.0908 13.1228 10.6917C13.2019 9.42061 13.3334 8.54981 13.4562 8.47686C13.6688 8.3492 15.2342 8.44221 15.5334 8.59996ZM14.95 17.5552C15.8422 18.1961 16.1222 19.7937 15.6969 21.8299C15.3016 23.7301 15.2203 23.7656 11.3053 23.783L8.4171 23.7949L7.92133 23.3736C7.0195 22.6067 7.06224 18.3722 7.98116 17.588L8.45451 17.184H11.4443C14.3537 17.184 14.4467 17.1941 14.95 17.5552ZM41.0013 17.8022C41.1894 18.1022 41.1392 23.0325 40.8977 27.807C40.7813 30.1239 40.746 30.1732 38.5908 30.9874C37.612 31.3577 36.6333 31.7306 36.4163 31.8163C36.1247 31.9303 35.9697 32.192 35.818 32.8221C35.3351 34.8236 35.0081 35.1628 32.8775 35.8604L31.6455 36.2643L31.5428 37.7797C31.4018 39.8642 31.2267 40.1751 29.954 40.5873C29.611 40.6986 28.8246 40.9867 28.207 41.2283C27.5894 41.4691 26.9002 41.7262 26.6759 41.7991C26.3211 41.914 26.2549 42.0682 26.164 42.9982C26.0112 44.5529 25.8948 44.6477 22.5557 45.9663C19.0071 47.3668 18.5562 47.3951 18.5562 46.216C18.5562 46.041 18.4301 45.8559 18.2742 45.8057C18.0572 45.7337 18.0444 45.6854 18.2196 45.5933C18.4024 45.4967 18.4056 44.9377 18.2313 42.689C17.6971 35.7864 17.6822 35.8348 20.783 34.3403C23.9447 32.8157 23.652 33.1394 23.7663 31.0376C23.8998 28.551 24.1317 28.3194 27.4356 27.3674C29.2788 26.8359 29.1622 26.9626 29.376 25.263C29.5853 23.6043 29.6323 23.5487 31.3474 22.9796C32.0505 22.7463 32.5932 22.5265 32.5526 22.4909C32.512 22.4563 32.7546 22.4225 33.0912 22.4161C33.9321 22.3997 33.9919 22.3104 34.2098 20.7684C34.4428 19.1117 34.6491 18.89 36.4099 18.4004C37.1205 18.2035 38.0213 17.9189 38.4135 17.7685C39.4306 17.3782 40.746 17.3946 41.0013 17.8022ZM38.5021 18.5418C38.0619 18.6977 37.2435 18.9758 36.6835 19.16C35.3821 19.5876 35.3564 19.6204 35.2047 21.0183C35.0776 22.1873 35.0797 22.1946 35.5434 22.345C35.912 22.4645 36.0103 22.5995 36.0167 22.9934C36.0221 23.3918 36.1471 23.5578 36.6376 23.8249L37.2509 24.1586L37.7435 23.8113C38.5171 23.2641 39.0054 23.2231 39.5204 23.6626C40.1487 24.1988 40.1647 24.1496 40.2961 21.2435C40.4457 17.9081 40.4169 17.8642 38.5021 18.5418ZM10.5445 19.1362C9.71214 19.3478 9.38517 20.8751 10.0306 21.538C10.3672 21.8837 12.5501 21.8134 12.9422 21.4441C13.2799 21.125 13.2735 19.6031 12.9315 19.3159C12.7029 19.1235 11.0778 19.0013 10.5445 19.1362ZM75.2984 21.5244C79.8941 21.9347 83.3251 22.8866 85.321 24.3055L85.9258 24.7359L85.4386 26.5449C84.2472 30.9701 85.0497 36.5624 87.4752 40.7404C87.8395 41.3669 88.1056 41.956 88.0671 42.049C88.0286 42.142 88.1804 42.3216 88.4037 42.4483C88.6281 42.5751 89.0704 42.8925 89.3878 43.1532C89.7062 43.414 90.1315 43.6273 90.3345 43.6273C90.5386 43.6273 90.857 43.6967 91.0418 43.7824C91.2716 43.8864 92.1712 43.8845 93.835 43.7769C99.9714 43.3775 105.707 44.5921 106.543 46.4668C107.677 49.0136 105.303 52.1102 100.476 54.377C99.1124 55.0171 95.6557 56.4989 95.1193 56.6731C94.7763 56.7843 94.6214 57.0013 94.4354 57.6305C94.2047 58.411 93.8382 59.2454 92.6499 61.6882C92.3519 62.3028 92.0249 63.2602 91.9245 63.8164C91.6499 65.3309 91.4875 65.5744 90.4788 65.9775C89.7297 66.2766 89.5053 66.4699 89.0854 67.1765C88.8098 67.6406 88.4465 68.2461 88.2787 68.5224C87.8865 69.1671 87.8545 69.1498 89.9125 69.4187C91.5826 69.6367 93.2804 69.9722 96.2017 70.6607C96.9368 70.8339 97.8749 70.977 98.2874 70.9789C100.747 70.9908 102.323 72.1634 104.113 75.3138C104.587 76.1499 105.221 77.1393 105.521 77.5132C106.278 78.4551 107.505 80.9207 107.839 82.1726C108.275 83.7966 108.779 84.9164 109.639 86.1692C110.79 87.8443 111.626 89.4691 111.874 90.5117C112.146 91.6552 112.497 92.5592 113.079 93.6184C113.33 94.0731 113.741 94.8937 113.994 95.4417C114.452 96.43 116.18 99.2946 117.698 101.579C118.133 102.234 118.557 103.089 118.64 103.479C118.723 103.869 118.89 104.489 119.011 104.855C119.211 105.465 119.193 105.578 118.809 106.179C118.173 107.174 118.404 107.556 119.994 108.137C123.668 109.479 124.366 111.15 122.534 114.219C121.899 115.284 121.691 115.818 121.596 116.635C121.342 118.829 119.795 119.84 118.316 118.778C117.676 118.318 117.574 118.314 116.654 118.714C115.235 119.332 114.501 118.713 115.815 118.006C118.226 116.707 118.895 115.164 117.886 113.229C117.45 112.391 117.397 112.184 117.593 112.081C118.026 111.852 119.349 113.426 119.355 114.175C119.359 114.582 119.639 115.015 119.806 114.871C120.142 114.584 119.953 113.286 119.483 112.664C118.481 111.339 118.869 110.951 120.257 111.887C120.89 112.313 121.148 112.425 121.056 112.228C120.683 111.433 120.706 110.748 121.107 110.838C122.151 111.07 121.219 110.006 119.87 109.424C119.285 109.174 118.484 108.718 118.089 108.413C117.42 107.897 117.33 107.87 116.804 108.029C116.492 108.122 115.715 108.311 115.079 108.448C113.673 108.753 110.326 109.678 109.8 109.907C109.459 110.057 109.427 110.167 109.508 110.931C109.577 111.591 109.487 112.098 109.114 113.142C108.527 114.779 108.573 115.556 109.303 116.373L109.803 116.933L110.082 116.233C110.234 115.847 110.53 115.373 110.74 115.18C110.949 114.985 111.177 114.668 111.245 114.474C111.325 114.25 111.657 114.016 112.157 113.834C112.589 113.676 112.942 113.475 112.942 113.389C112.942 112.976 114.346 113.552 115.477 114.427C116.153 114.949 116.012 116.112 115.141 117.217C114.813 117.633 114.54 118.087 114.535 118.224C114.514 118.857 114.178 122.745 114.016 124.25C113.141 132.357 112.159 156.23 112.682 156.677C112.831 156.804 113.295 156.345 113.825 155.544C114.626 154.332 115.448 154.557 115.035 155.877C114.878 156.38 114.897 156.582 115.139 156.996C115.508 157.628 115.51 157.904 115.15 158.342C114.914 158.63 114.902 158.765 115.08 159.131C115.276 159.534 115.242 159.638 114.697 160.3C113.499 161.757 112.942 162.653 112.942 163.129C112.942 164.073 111.831 164.693 110.591 164.44C108.939 164.101 109.02 164.756 109.027 151.731C109.033 141.463 109.164 136.117 109.733 123.034C109.976 117.458 109.992 117.82 109.496 117.901C108.242 118.105 107.217 115.256 107.871 113.383C108.52 111.535 108.443 110.82 107.564 110.487C107.159 110.334 106.803 109.992 106.389 109.356C106.062 108.855 105.607 108.273 105.377 108.064C105.148 107.855 104.858 107.387 104.733 107.022C104.563 106.53 104.256 106.18 103.532 105.654C101.024 103.835 100.573 103.468 99.9095 102.715C99.5184 102.272 98.8751 101.409 98.4787 100.797C97.4764 99.2489 97.3707 99.4211 96.4762 104.056L96.0329 106.355L96.3685 107.779C96.5533 108.563 96.7947 109.683 96.9059 110.269C97.3087 112.399 98.8997 116.836 100.492 120.272C102.082 123.703 101.964 124.285 99.2181 126.595L97.2702 128.233L97.2734 129.584C97.2788 131.937 96.392 140.756 95.9399 142.853C95.5125 144.835 95.2795 148.994 95.5873 149.141C95.7327 149.21 95.8459 149.487 95.8459 149.77C95.8459 150.048 95.9655 150.361 96.113 150.465C96.4164 150.68 96.457 151.183 96.2135 151.73C96.0723 152.046 96.0949 152.093 96.3598 152.034C96.8107 151.933 97.1548 152.363 97.0351 152.875C96.9785 153.113 97.017 153.379 97.1184 153.466C97.2457 153.575 97.2414 153.723 97.1024 153.944C96.8813 154.296 96.5607 154.372 96.5522 154.074C96.549 153.97 96.4603 154.011 96.3545 154.167C96.2113 154.376 96.2316 154.599 96.4336 155.037C96.5821 155.361 96.6633 155.759 96.6131 155.922C96.5404 156.159 96.5938 156.203 96.8802 156.139C97.0768 156.096 97.2788 155.924 97.3301 155.759C97.3995 155.531 97.5449 155.469 97.9253 155.506C98.624 155.574 98.7265 156.165 98.0834 156.415C97.7874 156.53 97.6261 156.714 97.6261 156.939C97.6261 157.13 97.5459 157.329 97.4465 157.38C97.3322 157.441 97.3653 157.595 97.5352 157.803C97.9252 158.278 97.8889 158.375 96.9913 159.288C95.7989 160.5 95.6674 160.643 95.6674 160.727C95.6674 160.768 95.2379 161.297 94.7143 161.902C94.1897 162.507 93.6972 163.174 93.6202 163.381C93.2387 164.406 89.4829 167.827 88.3257 168.204C85.0154 169.28 81.7522 167.224 80.61 163.341C80.2702 162.189 80.5363 160.487 81.2992 158.921C81.5823 158.339 81.6155 158.127 81.4541 157.932C80.6816 157.004 79.4859 153.939 78.833 151.217C78.6011 150.252 78.3298 149.279 78.2315 149.057C77.9857 148.505 76.2708 141.508 75.541 138.079C75.2536 136.726 74.8572 135.572 74.6808 135.572C74.606 135.572 74.2075 136.751 73.795 138.193C73.3837 139.635 72.8536 141.41 72.6186 142.138C72.3835 142.866 71.9358 144.506 71.6249 145.783C71.3128 147.061 70.9924 148.213 70.9111 148.341C70.6836 148.704 70.0702 151.042 69.9345 152.061C69.8073 153.01 69.4943 154.164 69.0444 155.328C68.9002 155.704 68.6619 156.558 68.5166 157.228C67.9866 159.668 67.7045 160.735 67.4416 161.296C66.9961 162.25 67.0666 162.689 67.6168 162.382C68.2516 162.027 68.3787 162.409 67.8712 163.142C67.4513 163.749 67.5304 163.935 68.2419 164.016C68.9814 164.1 68.9183 164.663 68.0753 165.517C67.3733 166.227 67.3594 166.262 67.7056 166.421C67.9866 166.549 68.0411 166.677 67.9492 166.99L67.8295 167.394L68.3274 167.06C68.9269 166.657 69.2357 166.638 69.4654 166.989C69.6268 167.235 69.661 167.234 70.0125 166.962C70.551 166.546 70.8951 166.853 70.551 167.443C70.4153 167.676 70.301 167.968 70.2957 168.094C70.285 168.348 69.5573 168.327 69.177 168.061C69.0059 167.94 68.9547 168.042 68.9547 168.496C68.9547 169.033 68.8265 169.198 67.6094 170.226C66.87 170.85 66.0152 171.737 65.7107 172.197C65.0076 173.257 64.8869 173.352 63.1666 174.191C62.3834 174.574 61.2742 175.133 60.7025 175.433C59.6105 176.006 58.1852 176.273 57.2491 176.082C55.1559 175.656 52.2207 173.364 52.4792 172.358C52.5829 171.956 52.5199 171.869 51.8895 171.53C51.0571 171.081 48.5846 168.489 47.5343 166.965C47.1272 166.374 46.7488 165.856 46.6933 165.814C46.6377 165.772 46.5683 165.252 46.5384 164.656C46.4444 162.709 47.1421 161.783 49.5014 160.724C51.7784 159.702 51.7752 159.718 52.0381 147.653C52.1256 143.642 52.2517 138.171 52.319 135.496L52.4398 130.633L51.8777 130.037C51.0593 129.17 51.0411 128.914 51.6501 126.705C51.9536 125.606 52.2837 124.33 52.3863 123.869C52.4879 123.409 52.6417 122.726 52.7282 122.35C52.8149 121.974 52.9409 120.674 53.0082 119.462C53.0755 118.251 53.2412 116.54 53.3747 115.662C53.5093 114.785 53.7081 113.417 53.816 112.624C53.9239 111.829 54.1398 110.583 54.2946 109.854C54.6323 108.264 54.5469 107.216 54.0297 106.61C53.1536 105.584 51.8585 101.498 51.8585 99.7574C51.8585 98.5368 51.4332 97.2256 50.6917 96.1601C50.353 95.6722 49.9875 94.9735 49.8786 94.6085L49.683 93.943L48.7673 94.3386C45.8193 95.6148 41.214 96.4632 34.851 96.9027C34.0678 96.9565 32.8262 97.1708 32.091 97.3789C29.703 98.0543 27.6727 98.3538 27.0338 98.126C25.6404 97.6282 22.9072 94.6453 21.3792 91.9547C20.6911 90.743 20.0254 89.5804 19.9015 89.3717C18.7475 87.4376 16.2033 81.0264 15.8048 79.0487C15.5088 77.5788 15.4735 77.68 16.5154 77.0417C17.5465 76.4089 17.5433 76.3952 15.9661 75.0731C14.3655 73.7308 13.9178 73.0634 13.7939 71.8297C13.7426 71.3218 13.625 70.782 13.5331 70.6297C12.3396 68.6546 12.7563 66.8282 14.5824 66.0349C14.9564 65.8725 15.7204 65.3638 16.2803 64.9042C18.7924 62.8435 19.7561 62.1267 20.3374 61.8906C20.831 61.689 20.9518 61.5578 20.9176 61.2569C20.487 57.4217 20.673 55.7311 21.5908 55.174C23.2759 54.1499 24.8241 55.8606 25.4235 59.4086L25.7409 61.2833L26.6534 61.7228C29.2873 62.9912 29.8343 66.1725 27.9922 69.5108C27.4986 70.4063 27.7903 72.0831 28.4538 72.1643C29.2114 72.2573 30.3045 72.8773 30.483 73.316C30.5834 73.5594 30.9691 74.1768 31.3431 74.6882C32.6606 76.4937 34.3253 79.6159 34.4994 80.6052C34.6886 81.6812 34.7826 81.7186 35.7956 81.124C36.3736 80.7848 37.1643 80.503 38 80.338C38.7168 80.1967 39.4862 80.017 39.7095 79.9404C40.3122 79.7317 44.9752 77.0609 46.5523 76.0204C47.4925 75.4004 48.3056 75.0092 49.1349 74.7777C49.8005 74.5916 50.7857 74.2169 51.3242 73.9442C53.1834 73.005 53.6996 72.8281 54.0404 73.0142C54.5308 73.2831 54.9742 72.953 54.9807 72.3129C54.9849 72.0175 55.0886 71.6728 55.2126 71.5451C55.4016 71.3509 55.2873 71.1868 54.4838 70.503C53.9603 70.0561 53.2818 69.3795 52.9772 68.9993C52.6727 68.6181 51.9696 67.9762 51.4151 67.5714C50.7024 67.0526 50.2782 66.5865 49.9662 65.9838C49.7237 65.5151 49.2705 64.907 48.9585 64.6325L48.3923 64.1328L46.1954 64.2149C41.2086 64.3991 35.9932 63.1508 35.0156 61.5377C33.8156 59.5572 34.9557 57.6624 39.0363 54.853C40.6017 53.7752 46.5437 51.0507 49.5569 50.0294C50.5966 49.6765 51.8585 48.6151 51.8585 48.0917C51.8585 47.9467 52.0124 47.4462 52.2004 46.9811C52.7592 45.5987 53.4271 40.7469 53.4484 37.9211C53.4762 34.2317 52.9495 30.5808 52.1395 28.8528C51.5294 27.5525 51.4792 27.662 53.1492 26.6389C56.5846 24.5343 60.1427 22.9496 62.6322 22.4152C63.1228 22.3095 64.0043 22.1107 64.592 21.9721C67.4395 21.301 71.0907 21.1487 75.2984 21.5244ZM34.1393 23.1109C34.0785 23.1949 33.8189 23.2632 33.5613 23.2632C31.6124 23.2632 30.2981 24.001 30.1891 25.158C30.0374 26.7574 30.2767 27.0273 31.2737 26.379C32.6274 25.4982 34.4332 26.7793 33.2931 27.8106C33.1147 27.9729 33.1222 28.0285 33.3358 28.0942C35.0904 28.6349 34.8456 30.7942 32.9928 31.1106C32.6926 31.1616 32.4479 31.2465 32.4479 31.2993C32.449 31.5072 33.166 32.3816 33.3348 32.3816C33.9022 32.3816 33.4609 32.9579 32.8262 33.0446C31.9597 33.1631 31.8089 33.3299 31.6786 34.3193C31.5535 35.2667 31.6701 35.3022 33.2247 34.7943C34.99 34.2181 35.0402 34.0348 35.226 27.4048L35.351 22.9596H34.8008C34.4973 22.9596 34.1993 23.028 34.1393 23.1109ZM39.7309 24.9346C39.5974 25.3641 37.7008 27.9674 37.5191 27.9711C37.4186 27.9729 37.0468 27.7705 36.692 27.5206L36.0477 27.0674L35.9665 27.6346C35.5156 30.8032 35.7465 31.1808 37.7232 30.5069C39.7672 29.8103 39.8612 29.6917 40.1049 27.4996C40.2865 25.8693 40.0162 24.0146 39.7309 24.9346ZM9.975 26.6827C10.0541 27.7714 10.1395 27.7751 11.785 26.762L13.2692 25.8464H14.9329C15.8486 25.8464 16.5976 25.9048 16.5976 25.9769C16.5976 26.0963 15.1615 27.1869 13.406 28.4005C12.4657 29.0507 12.4454 28.9887 14.1048 30.464C15.7995 31.9704 15.8326 32.0789 14.5942 32.0743C13.173 32.0689 12.4133 31.8628 11.5874 31.2592C10.5242 30.4832 9.81578 30.6519 9.98139 31.6412C10.0402 31.9868 9.66085 32.0725 8.51434 31.9713C7.28128 31.8628 7.32614 31.9804 7.31226 28.8191C7.29944 25.8073 7.29625 25.8146 8.83491 25.8784L9.91943 25.923L9.975 26.6827ZM27.1941 28.1899C24.7921 28.9795 24.3347 29.3953 24.5046 30.6336C24.5612 31.0522 24.6093 31.643 24.6104 31.9476C24.6114 32.4099 24.6841 32.5166 25.057 32.596C25.3017 32.6488 25.5016 32.7455 25.5016 32.8111C25.5016 33.4969 26.0059 33.4448 26.539 32.7054C27.2731 31.6868 27.2699 31.6859 28.2348 33.3783C29.3001 35.2448 29.2959 35.3141 28.02 37.7323L27.4826 38.7526L26.8425 38.2065C26.0262 37.5099 26.0198 37.5189 26.1533 39.2578C26.3062 41.2365 26.2259 41.1909 28.2241 40.4432C30.8751 39.4502 30.7929 39.701 30.8313 32.5549C30.8623 26.7729 30.999 26.9379 27.1941 28.1899ZM22.0406 34.4324C18.6994 35.9123 18.6577 35.9588 18.8009 37.9977C18.8629 38.8794 18.9537 40.3529 19.0017 41.2721C19.2059 45.1538 19.3009 46.0374 19.5275 46.1112C19.9421 46.2471 23.7834 44.7772 24.7899 44.0978L25.2344 43.7969L25.2323 41.015C25.228 36.3272 25.073 33.7722 24.7803 33.5387C24.5612 33.3637 24.1488 33.4986 22.0406 34.4324ZM14.5493 34.3366L15.6178 34.4333L15.6734 35.1764C15.7503 36.2141 15.7076 36.2296 12.7328 36.2442C10.3201 36.256 10.0979 36.2797 10.0391 36.5387C9.94079 36.9736 10.2528 37.1278 11.2305 37.1278C12.2381 37.1278 12.5682 37.3412 12.735 38.0961C12.8728 38.7253 12.4625 39.2204 11.801 39.2204C10.5146 39.2204 9.66939 39.69 10.3297 40.0375C10.4633 40.1086 13.6464 40.2754 14.9586 40.2818L15.5462 40.2846L15.4928 41.2338L15.4404 42.1839L13.2136 42.2733C10.8181 42.3699 7.84758 42.2833 7.51421 42.1073C7.26631 41.9769 7.08896 36.2151 7.29518 35.0415C7.4266 34.2984 7.44478 34.2792 8.14038 34.1834C8.8862 34.0804 12.7243 34.1716 14.5493 34.3366ZM22.5877 37.8909C24.3539 39.4703 24.7878 41.3423 23.3453 41.1608C22.733 41.0842 22.6903 41.7061 23.2737 42.2039C23.73 42.5925 23.5804 42.8432 22.608 43.3192C21.4647 43.879 21.142 43.9082 21.3055 43.4377C21.5085 42.8532 21.6367 41.956 21.516 41.956C21.453 41.956 21.2413 42.0408 21.0469 42.1447C19.8299 42.794 19.676 41.252 20.7264 38.9314C21.5929 37.0184 21.6057 37.0119 22.5877 37.8909ZM14.8913 44.0715C16.4609 45.3307 15.9063 48.9115 14.1038 49.1577C13.1025 49.2935 13.1196 49.3793 14.3965 50.5847C15.7428 51.8567 15.7236 51.9862 14.185 51.9862C13.1196 51.9862 12.9573 51.9387 11.8684 51.3023C10.3266 50.4014 10.0872 50.4096 9.9376 51.3671C9.80404 52.2269 9.76663 52.2479 8.52822 52.1412L7.60395 52.0619L7.47788 50.9221C7.21289 48.5257 7.51208 43.9374 7.93948 43.8544C9.76664 43.4997 14.3569 43.6429 14.8913 44.0715ZM10.116 46.1477C9.71108 47.0495 10.0412 47.2747 11.7679 47.2747C13.2938 47.2747 14.077 46.5343 13.0481 46.0647C12.4689 45.8003 10.2442 45.8632 10.116 46.1477ZM81.9552 46.7632C80.1431 46.9638 77.8992 47.1999 76.9685 47.2875C76.0379 47.3751 74.1947 47.5747 72.8729 47.7316C71.5501 47.8884 69.6674 48.0571 68.6875 48.1064C67.7077 48.1565 66.0248 48.2951 64.9478 48.4145C63.8707 48.5349 61.9067 48.7419 60.585 48.875C59.2621 49.0082 57.8603 49.1786 57.4682 49.2534C52.3724 50.2327 52.3094 50.2665 51.7463 52.3263C51.4589 53.3768 51.7976 56.1004 52.4067 57.6451C52.7443 58.4986 52.7475 58.5742 52.4687 58.8369C51.4503 59.7979 51.4674 64.3143 52.4954 66.2154C53.7722 68.5734 56.7256 70.8312 58.5357 70.8312C58.7568 70.8312 59.0325 70.9278 59.1478 71.0464C59.368 71.2725 60.8842 71.5196 62.9891 71.6719C64.4509 71.7777 64.7704 71.8908 66.1958 72.8081C70.7562 75.7414 74.9597 75.8171 78.0231 73.0223C78.9827 72.147 79.1878 72.0385 80.5555 71.6755C85.5668 70.3452 88.6879 67.7364 89.4444 64.244C89.548 63.7644 89.7586 63.0851 89.9103 62.7322C90.5311 61.3034 90.0781 56.9731 89.1474 55.4311C88.6131 54.5475 88.5811 54.0405 88.8888 51.378C89.1078 49.4914 89.1004 49.237 88.8022 48.2148C88.2103 46.1814 87.8588 46.1066 81.9552 46.7632ZM83.0376 49.3473C84.0933 49.9519 84.7302 50.5911 84.4844 50.7999C84.3231 50.9376 84.1809 50.9075 83.8722 50.6713C81.5428 48.8933 79.3834 49.5671 76.4129 52.9993C75.2749 54.3141 74.4265 54.3269 74.9266 53.0221C75.276 52.1102 76.0838 51.3597 77.7805 50.3723C80.4711 48.8057 81.6806 48.5695 83.0376 49.3473ZM61.5638 51.9826C62.0542 52.1804 62.9752 52.6308 63.6121 52.9829C64.249 53.3357 65.0044 53.7178 65.2908 53.8308C65.982 54.1053 66.0569 54.3743 65.5012 54.5895C64.9457 54.8065 63.9615 54.5202 62.3031 53.6612C59.6628 52.2917 58.8391 52.0701 57.2897 52.3108C56.6732 52.4065 56.7298 52.0737 57.3795 51.7883C58.2685 51.398 60.3564 51.4947 61.5638 51.9826ZM90.9671 53.8482C90.3869 54.2922 90.2725 54.8175 90.7704 54.7473C90.966 54.7199 91.388 54.6606 91.7075 54.6169C92.3626 54.5256 92.8177 54.7637 92.8177 55.1959C92.8177 55.5141 92.464 55.5743 92.1531 55.3099C91.2919 54.574 90.2822 56.7049 91.0537 57.6296C91.2663 57.883 91.3784 58.183 91.3154 58.3244C91.2534 58.4612 91.2983 58.6235 91.4158 58.6846C91.5772 58.7694 91.5591 59.0091 91.3389 59.6848C91.1071 60.4006 90.9735 62.7295 91.1744 62.558C91.3442 62.4131 92.7761 59.7542 93.2836 58.6408C94.0775 56.8974 94.1159 55.7156 93.4055 54.8056C92.6404 53.8254 92.2503 53.5063 91.8176 53.5063C91.5954 53.5063 91.2128 53.6595 90.9671 53.8482ZM82.0771 54.0369C82.3132 54.1774 82.4244 54.3698 82.3699 54.5457C82.2747 54.8549 83.2001 55.3299 83.8977 55.3299C84.104 55.3299 84.4107 55.4667 84.5784 55.6335C84.7462 55.8004 84.9812 55.9372 85.101 55.9372C85.4824 55.9372 85.5561 56.2436 85.2644 56.6229C85.1095 56.8253 84.9823 57.1299 84.9823 57.2995C84.9823 57.5412 84.8669 57.6095 84.4566 57.6095C84.1681 57.6095 83.1296 57.9515 82.1497 58.369C80.0298 59.2736 79.3544 59.3238 77.179 58.7393C75.6692 58.3344 75.3978 58.1758 75.6831 57.8685C75.7771 57.7673 75.9555 57.4117 76.0795 57.077C76.2034 56.7432 76.4599 56.281 76.649 56.0512C77.117 55.4831 76.93 55.5269 76.0742 56.1871C75.2397 56.8299 75.0377 56.7843 75.4491 56.0457C75.9225 55.1941 78.037 54.0569 78.037 54.6543C78.037 54.8667 78.1374 54.8913 78.6161 54.7956C78.9345 54.7317 79.5949 54.6378 80.0853 54.5867C80.8803 54.5038 80.969 54.4573 80.9199 54.1518C80.8525 53.7378 81.4733 53.6759 82.0771 54.0369ZM74.1188 55.6016C74.1188 55.6673 73.9521 55.9919 73.7491 56.3229C73.4211 56.8572 73.3911 57.0907 73.4894 58.3946C73.561 59.3493 73.5343 59.8973 73.4136 59.9612C72.8376 60.2647 72.6218 56.7743 73.1742 56.0849C73.6005 55.5543 74.1188 55.288 74.1188 55.6016ZM78.9078 55.7184C77.7239 56.0302 76.2162 57.7125 77.0572 57.7837C77.2047 57.7964 77.4044 57.8138 77.5017 57.822C77.5989 57.8302 77.8265 57.6004 78.0092 57.3104C78.9003 55.8916 81.063 55.7849 82.0408 57.1099C82.4094 57.6104 82.7352 57.7326 82.9404 57.4482C83.1049 57.2211 82.1487 56.0931 81.5097 55.7612C80.8813 55.4339 80.0436 55.4202 78.9078 55.7184ZM21.9177 56.0366C21.7575 56.2016 21.6966 56.5554 21.7393 57.0624C21.7767 57.4882 21.7928 58.0426 21.7757 58.2934C21.6773 59.7733 21.7447 60.1581 22.2768 61.1393C22.6411 61.8131 22.8302 62.3994 22.8302 62.858C22.8302 63.2847 22.8997 63.5173 23.0098 63.4599C23.108 63.4079 23.1412 63.2046 23.0824 63.0076C22.9029 62.3967 23.3528 60.9687 23.8848 60.4608C24.3604 60.0058 24.3679 59.973 24.1488 59.2198C23.309 56.3348 22.6048 55.3299 21.9177 56.0366ZM64.5182 56.5727C65.8058 57.0342 67.3711 58.4712 66.9064 58.7648C66.4052 59.0821 65.6604 58.9828 65.6604 58.5988C65.6604 56.911 58.8572 56.8946 58.4768 58.5815C58.2973 59.3739 59.6158 59.4551 59.9813 58.6736C60.6929 57.1572 63.4658 57.004 64.2671 58.4375C64.4252 58.7211 64.7223 58.9909 64.9264 59.0365C65.4767 59.1587 65.1283 59.3712 63.6538 59.8107C62.0809 60.2794 61.0989 60.2921 59.65 59.8618C59.0378 59.6803 58.2653 59.5463 57.933 59.5645C57.5109 59.5873 57.1968 59.4925 56.8922 59.249C56.6058 59.0211 56.2373 58.9007 55.8217 58.9007C55.4722 58.9007 55.1527 58.8159 55.1111 58.711C55.0684 58.6062 55.1345 58.5213 55.2564 58.5213C55.6335 58.5213 57.201 57.5894 57.201 57.3651C57.201 57.2421 57.3827 57.1536 57.6359 57.1536C57.8753 57.1536 58.1135 57.0934 58.1669 57.0195C58.7237 56.2508 62.8161 55.9627 64.5182 56.5727ZM67.042 56.6274C67.5709 57.046 67.6671 57.3049 67.2942 57.3049C67.0666 57.3049 66.4715 56.8253 66.2107 56.4314C65.9885 56.0968 66.5335 56.2254 67.042 56.6274ZM75.1873 57.4572C75.1873 57.636 75.0505 57.636 74.5644 57.4572C74.2491 57.3414 74.2641 57.325 74.6979 57.3159C74.9672 57.3104 75.1873 57.3734 75.1873 57.4572ZM49.2802 58.2715C48.3965 58.8231 48.6199 61.4967 49.6819 63.0495C50.3893 64.0863 50.5539 64.0134 50.2963 62.776C50.1746 62.1934 50.213 62.0164 50.5614 61.5769C51.2035 60.7645 51.1244 60.4562 50.3444 60.7343C49.5569 61.0152 49.465 60.666 50.1616 60.045C50.9737 59.322 50.1746 57.7134 49.2802 58.2715ZM77.5284 61.5769C78.4398 62.1541 79.2316 62.4888 80.6143 62.8818C83.2706 63.6386 83.7012 64.0653 83.044 65.2836C82.3345 66.5966 81.0641 67.2303 81.0641 66.272C81.0641 65.7221 80.6912 65.6665 80.298 66.158C80.1474 66.3458 79.6783 66.8073 79.254 67.1838C78.8309 67.5595 78.0787 68.3465 77.5829 68.9309C75.9706 70.8339 74.279 71.5133 71.1804 71.5013C68.5871 71.4923 67.1189 70.605 65.1668 67.8677C64.1271 66.4088 62.5436 65.7449 62.5436 66.7671C62.5436 68.1038 60.6801 67.5531 60.4599 66.1517C60.2976 65.1195 63.0747 63.2319 64.7554 63.2319C65.2832 63.2319 65.9276 62.8161 65.9276 62.4742C65.9276 62.1258 66.9085 61.4995 67.2697 61.6179C67.416 61.6654 67.5303 61.8969 67.5303 62.145C67.5303 62.7477 67.8562 62.9328 69.0166 62.9875C69.8265 63.0258 70.1183 63.1206 70.6429 63.5127C71.5608 64.2003 72.3803 64.1328 73.3869 63.2857C73.7972 62.9401 74.543 62.8052 74.7171 63.045C74.8154 63.1808 73.1827 64.6808 72.6923 64.9051C71.8664 65.2826 70.6494 65.0875 69.6011 64.41C69.0508 64.0543 68.3403 63.6267 68.0208 63.4589C67.7024 63.2912 67.3615 63.0003 67.2654 62.8125C67.1681 62.6256 67.0078 62.4751 66.9085 62.4787C66.5815 62.4906 63.9338 64.7328 64.0523 64.8969C64.3494 65.3073 65.39 65.5425 67.7644 65.7358C69.1533 65.8489 70.5435 66.0276 70.8523 66.1343C71.3363 66.3012 71.611 66.2811 72.8461 65.992C73.7812 65.7732 74.5131 65.6893 74.9554 65.7486C76.0934 65.9009 79.3844 65 79.9988 64.369C80.2702 64.0899 80.1099 63.8976 79.316 63.5447C78.9548 63.3842 78.2709 62.9748 77.7955 62.6346C76.8563 61.9636 76.2558 61.835 76.2558 62.3046C76.2558 62.6173 75.7963 62.8499 75.6306 62.621C75.574 62.5426 75.6179 62.3337 75.7301 62.156C75.8412 61.9781 75.8957 61.7137 75.8497 61.5669C75.7696 61.3034 75.9983 60.801 76.1992 60.801C76.2558 60.801 76.8531 61.1502 77.5284 61.5769ZM24.3401 62.0219C24.0324 62.4468 24.4758 64.5349 25.0741 65.4786C25.884 66.7561 25.7932 67.3279 24.8476 66.9121C24.0612 66.5656 23.3827 67.4701 23.2545 69.0385C23.1123 70.7801 23.1273 70.7564 21.8066 71.3591L20.6046 71.9072L19.4474 71.6637C17.7815 71.3135 16.7772 70.6415 16.7751 69.8737C16.774 69.6248 15.7407 67.4774 15.5045 67.2349C15.2684 66.9914 14.3922 67.3334 14.1134 67.7774C13.748 68.3601 15.0077 70.7336 16.0987 71.5169C16.6104 71.8844 16.7781 71.9208 17.601 71.8488C18.2121 71.795 18.6342 71.8333 18.8404 71.9619C19.4399 72.3366 18.3618 72.7306 16.7386 72.7306C14.5878 72.7306 15.185 73.6871 17.8862 74.5679L19.0937 74.9618L20.7392 74.2889C21.6452 73.9186 23.3271 73.2877 24.4779 72.8865C26.7346 72.0995 26.9151 71.9272 26.2827 71.1558C26.0198 70.8358 26.0198 70.7573 26.2752 70.2485C27.5616 67.6899 28.0777 65.3638 27.6535 64.0307C27.3703 63.1435 24.7002 61.5249 24.3401 62.0219ZM73.2287 62.393C73.2287 62.7486 72.4423 63.1079 71.9123 62.9948C71.2434 62.8516 71.3406 62.5516 72.1154 62.3665C73.0738 62.1377 73.2287 62.1413 73.2287 62.393ZM19.9816 63.6295C18.9419 64.4319 18.9772 66.9294 20.0425 67.9206C20.4037 68.2552 21.7468 68.9336 21.8387 68.8279C22.1667 68.4522 22.2928 66.5465 22.0438 65.7458C21.8889 65.248 21.7618 64.6462 21.7618 64.4082C21.7618 63.1462 21.0266 62.8243 19.9816 63.6295ZM85.8703 65.1103C85.8671 65.5188 85.6971 65.7331 85.273 65.8671C84.9931 65.9556 84.9567 65.9163 85.0476 65.6282C85.1074 65.4386 85.1597 65.01 85.164 64.6762L85.1725 64.0681L85.523 64.4265C85.7153 64.6243 85.8714 64.9316 85.8703 65.1103ZM17.2537 65.0738C16.1692 65.6118 16.2204 66.6732 17.446 69.0385C18.0615 70.2248 19.8267 70.9716 20.7691 70.4446C21.4081 70.0871 21.2948 69.789 20.3374 69.3111C19.2945 68.7905 18.6043 67.8312 18.3671 66.5701C18.0209 64.741 17.9953 64.7055 17.2537 65.0738ZM58.7664 65.0328C58.9898 65.1541 58.8285 66.3012 58.557 66.5327C58.3625 66.6987 57.9137 66.2309 57.9137 65.8635C57.9137 65.1523 58.2973 64.7793 58.7664 65.0328ZM24.2375 72.1333C24.2813 72.1698 24.1285 72.3704 23.8987 72.5792C23.1219 73.284 21.641 72.9604 22.1229 72.1908C22.3163 71.8834 23.8945 71.8406 24.2375 72.1333ZM63.469 72.747L62.8812 72.9658L63.252 73.3688C64.4744 74.6946 68.3414 76.4508 70.7338 76.7682C73.9051 77.1876 76.4909 76.4217 79.4282 74.1904C81.4691 72.6403 80.7831 72.1114 78.6942 73.6232C74.2481 76.8421 69.2752 76.7699 65.4713 73.4308C64.3227 72.4223 64.3312 72.4251 63.469 72.747ZM22.2511 75.0484C22.2148 75.1104 22.3697 75.3138 22.5963 75.4989C23.0621 75.8782 23.0771 75.8673 22.8346 75.3238C22.6668 74.9463 22.3868 74.8141 22.2511 75.0484ZM25.8531 80.5195C26.2485 81.1669 26.7368 81.8681 26.9397 82.0769L27.3062 82.4571L27.0915 82.0769C26.7047 81.3967 25.2942 79.3413 25.2141 79.3413C25.1703 79.3413 25.4587 79.8712 25.8531 80.5195ZM74.2961 80.017C73.4424 80.4137 72.3386 81.7833 72.3386 82.4471C72.3386 83.0516 72.5875 82.9213 73.5535 81.8107C74.045 81.2471 74.6893 80.6636 74.9875 80.5149C75.9567 80.0299 75.2942 79.5529 74.2961 80.017ZM74.1915 89.0242C72.2681 90.7305 71.6259 92.0345 72.1891 93.0874C72.5374 93.7412 72.7383 93.5403 74.0738 91.2139C76.0047 87.8461 76.0293 87.3929 74.1915 89.0242ZM44.646 98.7933C44.7069 98.8776 44.6364 98.9457 44.4889 98.9457C44.3426 98.9457 44.1727 98.8776 44.1118 98.7933C44.0508 98.7107 44.1214 98.6426 44.2689 98.6426C44.4152 98.6426 44.5852 98.7107 44.646 98.7933ZM96.7039 148.363C96.6323 148.781 96.2017 148.922 96.2017 148.527C96.2017 148.212 96.3459 148.033 96.6003 148.033C96.6878 148.033 96.7348 148.182 96.7039 148.363ZM100.225 150.426C100.03 150.592 99.8965 150.328 100.037 150.053C100.168 149.793 100.178 149.794 100.252 150.059C100.294 150.211 100.282 150.377 100.225 150.426ZM137.071 150.348C137.463 150.505 138.057 150.802 138.39 151.006C139.25 151.532 139.447 151.484 139.511 150.731L139.565 150.085L140.767 150.097C141.427 150.104 142.007 150.143 142.055 150.184C142.223 150.326 142.168 157.043 141.999 157.188C141.697 157.444 135.17 157.375 134.566 157.11C132.36 156.136 132.796 153.139 135.233 152.525L136.004 152.33L135.114 151.861C133.489 151.004 132.539 150.391 132.594 150.237C132.742 149.821 135.966 149.9 137.071 150.348ZM99.1968 151.403C99.1252 151.821 98.6946 151.961 98.6946 151.566C98.6946 151.251 98.8388 151.073 99.093 151.073C99.1818 151.073 99.2288 151.222 99.1968 151.403ZM98.1603 152.583C98.1603 152.746 98.0887 152.916 98.0011 152.963C97.8098 153.063 97.5832 152.623 97.7254 152.427C97.9006 152.184 98.1603 152.278 98.1603 152.583ZM116.682 152.498C116.682 152.756 116.247 153.083 116.087 152.946C115.822 152.72 115.979 152.288 116.325 152.288C116.522 152.288 116.682 152.382 116.682 152.498ZM101.277 153.051C101.277 153.174 101.097 153.298 100.876 153.325C100.486 153.372 100.32 153.08 100.601 152.84C100.808 152.663 101.277 152.809 101.277 153.051ZM100.476 153.66C100.476 153.96 100.239 154.264 100.006 154.264C99.6541 154.264 99.5013 153.85 99.7566 153.587C99.9661 153.372 100.476 153.424 100.476 153.66ZM115.782 153.723C116.005 153.952 115.763 154.568 115.449 154.568C115.3 154.568 115.085 154.061 115.081 153.695C115.078 153.436 115.52 153.454 115.782 153.723ZM135.957 154.442C135.222 155.068 136.031 155.422 137.982 155.328L139.565 155.252V154.796V154.34L137.87 154.297C136.705 154.267 136.107 154.313 135.957 154.442ZM97.5662 155.09C97.5074 155.221 97.3771 155.328 97.2756 155.328C97.0704 155.328 97.0244 154.829 97.2136 154.667C97.4091 154.5 97.6837 154.829 97.5662 155.09ZM99.3185 155.113C99.3185 155.456 99.2288 155.566 98.9178 155.605C98.4702 155.659 98.3868 155.363 98.7074 154.852C98.9713 154.432 99.3185 154.58 99.3185 155.113ZM116.148 155.556C116.148 155.671 116.058 155.813 115.949 155.87C115.668 156.019 115.415 155.608 115.644 155.373C115.863 155.148 116.148 155.252 116.148 155.556ZM142.162 158.851C142.288 161.918 142.296 164.617 142.18 164.979L142.034 165.435L139.909 165.535C133.505 165.837 133.369 165.819 133.455 164.658L133.511 163.914L136.449 163.839L139.388 163.762V163.382C139.388 163.025 139.325 163 138.324 162.956C137.023 162.899 136.784 162.749 136.884 162.057C136.977 161.412 136.857 161.484 138.139 161.318C138.935 161.215 139.222 161.112 139.266 160.913C139.32 160.669 139.104 160.647 136.717 160.647C133.701 160.647 133.421 160.572 133.421 159.759C133.421 158.609 133.363 158.622 138.72 158.548L142.148 158.499L142.162 158.851ZM74.8314 163.226C74.8314 163.53 74.2566 163.905 74.0537 163.732C73.8741 163.579 73.9211 163.421 74.2214 163.165C74.5996 162.843 74.8314 162.865 74.8314 163.226ZM73.2287 164.357C73.2287 164.739 73.0193 165.054 72.765 165.054C72.4605 165.054 72.438 164.574 72.7297 164.325C73.0161 164.08 73.2287 164.094 73.2287 164.357ZM71.2701 165.115C71.2701 165.223 71.1099 165.435 70.9132 165.586C70.4944 165.91 70.3972 165.594 70.7444 165.04C70.9389 164.73 71.2701 164.777 71.2701 165.115ZM137.25 168.239C139.017 169.6 139.622 169.631 139.818 168.373L139.922 167.714L140.973 167.668C141.694 167.635 142.071 167.684 142.173 167.82C142.349 168.055 142.375 171.302 142.212 172.631L142.098 173.565H141.155C140.038 173.565 139.655 173.312 139.655 172.575C139.655 171.828 139.461 171.824 138.203 172.539C137.042 173.201 134.429 173.574 133.93 173.148C133.741 172.986 135.307 171.912 136.35 171.487C137.187 171.146 137.198 171.174 135.558 169.491C134.775 168.687 134.133 167.981 134.133 167.921C134.133 167.475 136.584 167.726 137.25 168.239ZM65.7417 169.261C65.0482 169.818 64.3964 170.417 64.2938 170.59C64.1901 170.764 64.6581 170.443 65.3324 169.879C66.0077 169.315 66.6178 168.854 66.6883 168.854C67.0655 168.854 66.7001 169.406 65.7492 170.273C64.6913 171.238 64.4669 171.59 64.9092 171.59C65.2052 171.59 67.2172 169.567 67.4128 169.072C67.8498 167.966 67.2675 168.033 65.7417 169.261ZM140.475 175.843C142.065 176.428 142.694 177.811 142.33 179.925C141.89 182.478 141.668 182.608 137.703 182.608C133.415 182.608 133.33 182.538 133.335 179.025C133.341 176.043 133.688 175.728 137.161 175.541C139.215 175.431 139.406 175.448 140.475 175.843ZM53.6524 176.95C53.6311 177.131 53.3865 177.097 53.3095 176.901C53.2711 176.8 53.3352 176.746 53.4527 176.779C53.5703 176.812 53.6599 176.889 53.6524 176.95ZM136.762 177.929C136.098 178.015 135.736 178.513 135.74 179.336C135.743 180.363 135.862 180.443 137.509 180.523C139.389 180.617 139.832 180.344 139.832 179.094C139.832 177.906 139.095 177.626 136.762 177.929ZM49.7086 178.913C50.5699 179.372 50.5464 180.867 49.668 181.391C49.199 181.671 47.6058 181.7 47.4968 181.429C47.3098 180.964 47.296 178.887 47.4786 178.725C47.7191 178.513 49.1883 178.635 49.7086 178.913ZM53.9719 178.784C54.2701 179.09 54.034 179.188 52.9965 179.188C51.5016 179.188 51.5091 179.742 53.0061 179.825C54.2722 179.894 54.3096 180.252 53.0499 180.252C52.0444 180.252 51.7485 180.439 51.9717 180.936C52.0476 181.103 52.3553 181.164 53.1236 181.164C53.9516 181.164 54.1739 181.213 54.1739 181.398C54.1739 181.592 53.9507 181.626 52.8822 181.588L51.5913 181.543L51.5401 180.061L51.4899 178.58H52.6321C53.3694 178.58 53.8438 178.652 53.9719 178.784ZM59.8723 180.184C59.8723 181.51 59.7099 181.965 59.446 181.379C59.3018 181.059 59.3071 178.809 59.4524 178.686C59.7495 178.431 59.8723 178.869 59.8723 180.184ZM78.1118 178.671C78.8192 178.904 78.3854 179.188 77.3243 179.188C76.3744 179.188 76.2558 179.222 76.2558 179.491C76.2558 179.758 76.3744 179.796 77.2356 179.796C78.0723 179.796 78.2155 179.837 78.2155 180.078C78.2155 180.322 78.0808 180.359 77.2805 180.345C75.7515 180.317 75.8583 181.052 77.4001 181.164C79.1013 181.286 78.9399 181.643 77.2089 181.588L75.8113 181.543L75.76 180.146L75.7087 178.749L76.5614 178.692C77.0304 178.661 77.5071 178.623 77.6214 178.607C77.7357 178.592 77.9569 178.622 78.1118 178.671ZM92.5507 178.882C92.5507 179.016 92.3305 179.141 92.0164 179.188L91.482 179.266L91.4297 180.453C91.3592 182.06 90.9692 181.986 90.8965 180.353C90.8463 179.237 90.826 179.188 90.4168 179.188C89.984 179.188 89.7009 178.978 89.8526 178.77C90.0236 178.534 92.5507 178.639 92.5507 178.882ZM96.113 178.884C96.113 179.049 95.8459 179.132 95.1332 179.188C93.7677 179.294 93.7581 179.688 95.1193 179.796C96.3962 179.896 96.5736 180.252 95.348 180.252C94.4055 180.252 93.9407 180.516 94.133 180.945C94.2175 181.133 94.4653 181.176 95.2656 181.145C96.0627 181.113 96.2904 181.154 96.2904 181.324C96.2904 181.626 93.9001 181.729 93.6821 181.437C93.3188 180.948 93.5091 178.881 93.9311 178.733C94.5754 178.506 96.113 178.612 96.113 178.884ZM99.6519 178.751C100.264 178.989 100.408 179.592 99.9746 180.095C99.6359 180.485 99.6359 180.5 99.9639 180.844C100.343 181.246 100.408 181.646 100.075 181.537C99.9522 181.496 99.6947 181.264 99.5024 181.018C98.7982 180.124 98.0513 180.122 97.953 181.012C97.9198 181.304 97.813 181.527 97.7158 181.506C97.5298 181.468 97.3653 179.135 97.5245 178.783C97.6378 178.53 99.0332 178.51 99.6519 178.751ZM104.342 178.824C104.381 178.927 104.019 179.026 103.401 179.081C102.275 179.18 102.168 179.228 102.318 179.561C102.394 179.73 102.676 179.796 103.319 179.796C103.998 179.796 104.216 179.852 104.216 180.024C104.216 180.199 103.987 180.252 103.224 180.252C101.659 180.252 101.792 181.062 103.369 181.133C104.135 181.167 104.394 181.235 104.394 181.406C104.394 181.591 104.153 181.625 103.102 181.588L101.811 181.543L101.76 180.055L101.709 178.566L102.993 178.611C103.728 178.637 104.304 178.727 104.342 178.824ZM107.764 178.802C108.488 179.122 108.775 180.273 108.316 181.005C107.985 181.533 106.076 181.839 105.677 181.429C105.499 181.246 105.417 178.925 105.581 178.694C105.721 178.496 107.24 178.571 107.764 178.802ZM57.747 178.889C57.9362 178.975 58.0912 179.147 58.0912 179.269C58.0912 179.531 57.8838 179.558 57.6167 179.329C57.512 179.24 57.1145 179.189 56.7352 179.215C55.7233 179.287 55.8184 179.672 56.903 179.901C57.9426 180.12 58.2696 180.331 58.2696 180.783C58.2696 181.661 56.6188 181.906 55.7414 181.156C55.079 180.592 55.3429 180.297 56.0235 180.843C56.4381 181.175 57.1092 181.256 57.5387 181.025C57.9736 180.79 57.6156 180.452 56.7288 180.262C55.6827 180.036 55.4199 179.865 55.4199 179.405C55.4199 178.802 56.8591 178.484 57.747 178.889ZM63.9284 178.968C64.3173 179.2 64.4744 179.643 64.1677 179.643C64.0822 179.643 63.9124 179.54 63.7905 179.416C63.4604 179.077 62.2636 179.123 61.8309 179.491C61.085 180.129 61.7828 181.164 62.9592 181.164C63.6463 181.164 64.2158 180.767 63.7211 180.633C63.563 180.591 63.3001 180.519 63.1367 180.474C62.6344 180.338 63.1484 180.072 63.812 180.127C64.3686 180.172 64.4135 180.215 64.4135 180.704C64.4135 181.689 62.4976 181.953 61.5018 181.104C60.0411 179.857 62.2155 177.944 63.9284 178.968ZM67.1414 179.694C68.1095 180.778 68.2419 180.772 68.2419 179.643C68.2419 178.48 68.5454 178.45 68.6266 179.606C68.7816 181.833 68.5817 182.001 67.4011 180.637C66.3421 179.416 66.2834 179.416 66.2834 180.631C66.2834 181.174 66.2065 181.619 66.1135 181.619C65.8827 181.619 65.715 180.753 65.8186 180.1C65.8656 179.807 65.9083 179.374 65.9147 179.137C65.9318 178.537 66.23 178.671 67.1414 179.694ZM74.0172 178.971C74.3282 179.236 74.4019 180.1 74.1135 180.1C73.7363 180.1 73.748 180.55 74.137 181C74.7684 181.729 74.341 181.768 73.6144 181.047C72.672 180.113 71.9817 180.199 71.9817 181.252C71.9817 181.453 71.9016 181.619 71.8043 181.619C71.6975 181.619 71.6259 181.037 71.6259 180.175V178.732H72.6816C73.404 178.732 73.826 178.808 74.0172 178.971ZM82.45 178.968C82.8389 179.2 82.996 179.643 82.6893 179.643C82.6028 179.643 82.4297 179.538 82.3035 179.409C81.92 179.014 80.7286 179.179 80.2841 179.688C79.6109 180.461 80.7328 181.43 81.8954 181.079C82.5365 180.886 82.6188 180.59 82.0493 180.528C81.3409 180.453 81.5118 180.175 82.2662 180.175C82.9094 180.175 82.934 180.194 82.934 180.704C82.934 181.653 81.0641 181.948 80.0737 181.155C78.5585 179.939 80.7296 177.94 82.45 178.968ZM84.7152 180.189C84.7152 182.02 84.3744 181.965 84.308 180.123C84.2674 179.017 84.3071 178.717 84.4855 178.768C84.6501 178.816 84.7152 179.218 84.7152 180.189ZM88.3909 179.026C88.6965 179.238 88.7584 179.365 88.6163 179.487C88.4743 179.612 88.3609 179.593 88.1943 179.422C87.9036 179.124 86.8746 179.118 86.5873 179.413C86.349 179.659 86.9377 179.948 87.6728 179.948C88.4304 179.948 89.064 180.763 88.6666 181.226C88.0939 181.894 85.8724 181.533 85.8724 180.773C85.8724 180.495 86.0369 180.497 86.4045 180.782C86.7817 181.072 87.6707 181.212 87.9912 181.031C88.4165 180.79 88.0682 180.439 87.2914 180.327C86.5766 180.224 85.8724 179.809 85.8724 179.491C85.8724 178.802 87.6098 178.48 88.3909 179.026ZM48.1635 179.144C47.7052 179.217 47.562 180.627 47.9766 180.982C48.5012 181.429 49.5548 181.092 49.8155 180.391C49.9576 180.007 49.5868 179.188 49.2695 179.188C49.1424 179.188 48.9319 179.163 48.8015 179.133C48.6712 179.103 48.3837 179.107 48.1635 179.144ZM106.208 179.167C106.051 179.252 105.994 179.56 106.031 180.114L106.085 180.936L106.766 180.983C107.642 181.045 107.956 180.81 107.956 180.091C107.956 179.212 107.03 178.722 106.208 179.167ZM72.1601 179.576C72.1601 180.13 73.6379 180.086 73.7309 179.53C73.7822 179.217 73.7159 179.188 72.9743 179.188C72.2201 179.188 72.1601 179.216 72.1601 179.576ZM98.015 179.53C98.0844 179.946 98.9552 180.077 99.4788 179.749C99.9832 179.434 99.669 179.188 98.7608 179.188C98.0299 179.188 97.9627 179.218 98.015 179.53ZM63.2905 184.064C63.6143 184.406 64.0566 184.868 64.2746 185.09L64.6689 185.495L64.6753 184.456C64.6838 182.788 65.1134 183.199 65.1775 184.937C65.2405 186.661 65.0236 186.743 63.9231 185.423C62.9144 184.213 62.8834 184.221 62.8257 185.723C62.784 186.8 62.4496 186.108 62.4036 184.849C62.3449 183.252 62.441 183.168 63.2905 184.064ZM69.1512 183.79C70.1898 184.385 70.1076 185.733 69.0081 186.125C67.7238 186.582 66.2834 185.95 66.2834 184.928C66.2834 183.658 67.8413 183.039 69.1512 183.79ZM76.2162 183.679C76.851 184.059 76.7376 184.401 76.0838 184.082C75.5719 183.832 75.5409 183.835 75.1616 184.158L74.7685 184.493L75.5314 184.468C76.6747 184.428 77.2378 185.354 76.4962 186.053C75.7568 186.748 74.2972 186.076 74.2972 185.038C74.2972 183.779 75.2513 183.104 76.2162 183.679ZM79.6398 184.972C79.6398 185.72 79.5682 186.33 79.4806 186.33C79.2316 186.33 79.1055 185.915 79.1055 185.093C79.1055 184.404 79.0714 184.339 78.7209 184.383C78.1267 184.457 78.1684 184.161 78.801 183.81C79.5928 183.37 79.6398 183.435 79.6398 184.972ZM83.2022 183.717C83.7471 184.094 83.8134 185.532 83.308 186.01C82.4308 186.838 81.2426 186.191 81.2426 184.887C81.2426 183.6 82.2031 183.026 83.2022 183.717ZM86.7635 183.662C86.7635 183.803 86.5338 183.897 86.1096 183.928C85.3659 183.982 85.0507 184.356 85.7495 184.356C86.8607 184.356 87.4036 185.491 86.567 186.069C85.9184 186.518 84.6414 186.253 84.6286 185.669C84.6275 185.597 84.7665 185.591 84.9374 185.655C85.6801 185.935 86.3148 185.819 86.3725 185.394C86.4366 184.923 85.9237 184.696 85.3691 184.948C84.8424 185.19 84.572 184.44 84.9118 183.683C85.0593 183.356 86.7635 183.336 86.7635 183.662ZM90.1988 183.671C90.1774 183.755 89.9039 183.857 89.5887 183.899C88.9604 183.983 88.6569 184.356 89.2179 184.356C89.733 184.356 90.5033 184.936 90.5033 185.324C90.5033 186.174 89.1837 186.623 88.362 186.054C87.863 185.709 88.019 185.408 88.5501 185.69C89.189 186.031 89.969 185.822 89.969 185.309C89.969 185.013 89.1196 184.714 88.8739 184.924C88.3364 185.383 87.9976 184.651 88.3652 183.825C88.5468 183.417 90.2971 183.27 90.1988 183.671ZM93.3669 183.727C93.9204 184.109 93.9771 185.522 93.4589 186.01C92.5815 186.838 91.3934 186.191 91.3934 184.887C91.3934 183.592 92.354 183.026 93.3669 183.727ZM67.2077 184.209C66.3753 184.87 66.9106 185.874 68.0956 185.874C68.8553 185.874 69.3105 185.495 69.3105 184.861C69.3105 183.969 68.0134 183.568 67.2077 184.209ZM81.8847 184.139C81.701 184.548 81.7661 185.501 81.9905 185.692C82.5344 186.156 83.2012 185.712 83.2012 184.887C83.2012 184.051 82.185 183.472 81.8847 184.139ZM92.1413 184.082C92.0238 184.182 91.9277 184.544 91.9277 184.887C91.9277 185.812 92.7387 186.266 93.1682 185.581C93.7517 184.651 92.9117 183.425 92.1413 184.082ZM141.244 184.925C142.359 185.41 143.22 187.452 142.551 188.024C142.097 188.41 140.189 187.993 139.923 187.45L139.673 186.939H138.315C136.079 186.939 135.922 187.085 135.917 189.162C135.914 191.052 135.827 191.151 134.349 190.951L133.332 190.814L133.388 188.689C133.482 185.083 133.949 184.734 138.764 184.681C140.229 184.664 140.766 184.717 141.244 184.925ZM74.8999 185.182C74.6979 185.632 74.9715 185.897 75.587 185.846C76.072 185.807 76.1671 185.737 76.1671 185.418C76.1671 184.956 75.0922 184.755 74.8999 185.182Z" fill="black"/>
</g>
<defs>
<clipPath id="clip0">
<rect width="150" height="200" fill="white"/>
</clipPath>
</defs>
</svg>
